<svg width="54" height="30" viewBox="0 0 54 30" fill="none" xmlns="http://www.w3.org/2000/svg">
<path d="M7.5 27H13.6875C13.7812 28.2188 14.25 29.25 15 30H7.5C3.28125 30 0 26.7188 0 22.5V7.5C0 3.375 3.28125 0 7.5 0H25.875L22.6875 3H7.5C4.96875 3 3 5.0625 3 7.5V22.5C3 25.0312 4.96875 27 7.5 27ZM22.125 30L25.2188 27H40.5C42.9375 27 45 25.0312 45 22.5V7.5C45 5.0625 42.9375 3 40.5 3H34.2188C34.125 1.875 33.6562 0.84375 32.9062 0H40.5C44.625 0 48 3.375 48 7.5V22.5C48 26.7188 44.625 30 40.5 30H22.125ZM52.5 9C53.25 9 54 9.75 54 10.5V19.5C54 20.3438 53.25 21 52.5 21C51.6562 21 51 20.3438 51 19.5V10.5C51 9.75 51.6562 9 52.5 9ZM17.9062 15.75H22.5C22.9688 15.75 23.4375 16.0312 23.7188 16.5C24 16.875 24 17.4375 23.8125 17.9062L22.0312 21.8438L30 14.25H25.5C24.9375 14.25 24.4688 14.0625 24.1875 13.5938C23.9062 13.125 23.9062 12.6562 24.0938 12.1875L25.875 8.25L17.9062 15.75ZM29.3438 1.5C30.75 1.5 31.6875 3 31.0312 4.21875L27.8438 11.25H32.4375C33.5625 11.25 34.5 12.1875 34.5 13.3125C34.5 13.875 34.2188 14.4375 33.8438 14.8125L19.875 28.0312C19.5 28.3125 19.0312 28.5 18.5625 28.5C17.1562 28.5 16.3125 27.0938 16.875 25.875L20.1562 18.75H15.4688C14.3438 18.75 13.5 17.9062 13.5 16.7812C13.5 16.2188 13.6875 15.6562 14.0625 15.2812L28.0312 2.0625C28.4062 1.6875 28.875 1.5 29.3438 1.5Z" fill="#E44B0A"/>
</svg>
