<svg width="48" height="52" viewBox="0 0 48 52" fill="none" xmlns="http://www.w3.org/2000/svg">
<path d="M45 26C45 18.5 40.9688 11.6562 34.5 7.90625C27.9375 4.0625 19.9688 4.0625 13.5 7.90625C6.9375 11.6562 3 18.5 3 26C3 33.5938 6.9375 40.4375 13.5 44.1875C19.9688 48.0312 27.9375 48.0312 34.5 44.1875C40.9688 40.4375 45 33.5938 45 26ZM0 26C0 17.4688 4.5 9.59375 12 5.28125C19.4062 0.96875 28.5 0.96875 36 5.28125C43.4062 9.59375 48 17.4688 48 26C48 34.625 43.4062 42.5 36 46.8125C28.5 51.125 19.4062 51.125 12 46.8125C4.5 42.5 0 34.625 0 26ZM17.9062 26.75H22.5C22.9688 26.75 23.4375 27.0312 23.7188 27.5C24 27.875 24 28.4375 23.8125 28.9062L22.0312 32.8438L30 25.25H25.5C24.9375 25.25 24.4688 25.0625 24.1875 24.5938C23.9062 24.125 23.9062 23.6562 24.0938 23.1875L25.875 19.25L17.9062 26.75ZM29.3438 12.5C30.75 12.5 31.6875 14 31.0312 15.2188L27.8438 22.25H32.4375C33.5625 22.25 34.5 23.1875 34.5 24.3125C34.5 24.875 34.2188 25.4375 33.8438 25.8125L19.875 39.0312C19.5 39.3125 19.0312 39.5 18.5625 39.5C17.1562 39.5 16.3125 38.0938 16.875 36.875L20.1562 29.75H15.4688C14.3438 29.75 13.5 28.9062 13.5 27.7812C13.5 27.2188 13.6875 26.6562 14.0625 26.2812L28.0312 13.0625C28.4062 12.6875 28.875 12.5 29.3438 12.5Z" fill="#E44B0A"/>
</svg>
