<svg width="60" height="49" viewBox="0 0 60 49" fill="none" xmlns="http://www.w3.org/2000/svg">
<path d="M30 0C30.75 0 31.5 0.75 31.5 1.5V3.09375C32.5312 3.1875 33.4688 3.46875 34.4062 3.75C35.1562 3.9375 35.625 4.78125 35.4375 5.53125C35.25 6.375 34.4062 6.84375 33.5625 6.5625C32.4375 6.28125 31.3125 6.09375 30.2812 6.09375C29.4375 6 28.5 6.28125 27.8438 6.65625C27.2812 7.03125 27 7.5 27 8.15625C27 8.625 27.1875 8.90625 27.75 9.28125C28.5 9.75 29.5312 10.125 30.75 10.5H30.8438C31.9688 10.875 33.375 11.25 34.5 12C35.7188 12.75 36.6562 13.9688 36.75 15.8438C36.75 17.7188 35.8125 19.125 34.5 19.9688C33.5625 20.625 32.5312 20.9062 31.5 21V22.5C31.5 23.3438 30.75 24 30 24C29.1562 24 28.5 23.3438 28.5 22.5V20.8125C27.4688 20.5312 26.4375 20.25 25.5938 19.9688C25.4062 19.875 25.2188 19.7812 24.9375 19.6875C24.1875 19.4062 23.8125 18.5625 24 17.8125C24.2812 17.0625 25.125 16.5938 25.9688 16.875C26.1562 16.9688 26.4375 17.0625 26.625 17.1562C28.0312 17.625 29.1562 18 30.375 18C31.3125 18.0938 32.25 17.8125 32.8125 17.4375C33.375 17.1562 33.75 16.5938 33.75 15.8438C33.6562 15.2812 33.4688 14.9062 32.8125 14.5312C32.1562 14.0625 31.125 13.6875 29.9062 13.3125H29.7188C28.5938 12.9375 27.2812 12.5625 26.1562 11.9062C25.0312 11.1562 24 9.9375 24 8.15625C24 6.1875 25.0312 4.875 26.3438 4.03125C27 3.65625 27.75 3.375 28.5 3.1875V1.5C28.5 0.75 29.1562 0 30 0ZM6 6C9.28125 6 12 8.71875 12 12V23.7188C12 24.0938 12 24.5625 12.0938 24.9375C12.2812 24.6562 12.4688 24.375 12.75 24.0938C14.8125 22.0312 18.0938 22.0312 20.1562 24.0938L28.6875 32.625C29.1562 33.1875 29.625 33.6562 30 34.2188C30.2812 33.6562 30.75 33.1875 31.2188 32.625L39.75 24.0938C41.8125 22.0312 45.0938 22.0312 47.1562 24.0938C47.4375 24.375 47.625 24.6562 47.8125 24.9375C47.9062 24.5625 48 24.0938 48 23.7188V12C48 8.71875 50.625 6 54 6C57.2812 6 60 8.71875 60 12V32.3438C60 35.0625 58.875 37.7812 56.9062 39.75L49.0312 47.625C48.4688 48.1875 47.4375 48.1875 46.875 47.625C46.3125 47.0625 46.3125 46.0312 46.875 45.4688L54.75 37.5938C56.1562 36.1875 57 34.3125 57 32.3438V12C57 10.4062 55.5938 9 54 9C52.3125 9 51 10.4062 51 12V23.7188C51 26.25 49.9688 28.6875 48.1875 30.4688L47.1562 31.5L43.0312 35.625L41.5312 37.125C40.9688 37.6875 39.9375 37.6875 39.375 37.125C38.8125 36.5625 38.8125 35.5312 39.375 34.9688L40.875 33.4688L45 29.3438C45.8438 28.5 45.8438 27.0938 45 26.25C44.1562 25.4062 42.75 25.4062 41.9062 26.25L33.375 34.7812C32.1562 36 31.5 37.5938 31.5 39.2812V46.5C31.5 47.3438 30.75 48 30 48C29.1562 48 28.5 47.3438 28.5 46.5V39.2812C28.5 37.5938 27.75 36 26.625 34.7812L18 26.25C17.1562 25.4062 15.75 25.4062 14.9062 26.25C14.0625 27.0938 14.0625 28.5 14.9062 29.3438L19.0312 33.4688L20.5312 34.9688C21.0938 35.5312 21.0938 36.5625 20.5312 37.125C19.9688 37.6875 18.9375 37.6875 18.375 37.125L16.875 35.625L12.75 31.5L11.8125 30.4688C9.9375 28.6875 9 26.25 9 23.7188V12C9 10.4062 7.59375 9 6 9C4.3125 9 3 10.4062 3 12V32.3438C3 34.3125 3.75 36.1875 5.15625 37.5938L13.0312 45.4688C13.5938 46.0312 13.5938 47.0625 13.0312 47.625C12.4688 48.1875 11.4375 48.1875 10.875 47.625L3 39.75C1.03125 37.7812 0 35.0625 0 32.3438V12C0 8.71875 2.625 6 6 6Z" fill="#E44B0A"/>
</svg>
