<svg width="54" height="48" viewBox="0 0 54 48" fill="none" xmlns="http://www.w3.org/2000/svg">
<path d="M28.5 2.25V3.9375C29.25 4.03125 30 4.21875 30.75 4.40625C31.5 4.59375 31.9688 5.4375 31.7812 6.1875C31.5938 7.03125 30.75 7.5 29.9062 7.3125C28.875 7.03125 27.8438 6.84375 26.9062 6.75C26.1562 6.75 25.3125 6.9375 24.75 7.3125C24.1875 7.59375 24 7.96875 24 8.53125C24 8.8125 24.0938 9.09375 24.6562 9.46875C25.3125 9.84375 26.1562 10.125 27.375 10.5H27.4688C28.5 10.7812 29.8125 11.1562 30.8438 11.8125C31.9688 12.5625 32.9062 13.6875 33 15.4688C33 17.25 32.0625 18.5625 30.8438 19.3125C30.0938 19.7812 29.25 20.0625 28.5 20.1562V21.75C28.5 22.5938 27.75 23.25 27 23.25C26.1562 23.25 25.5 22.5938 25.5 21.75V20.1562C24.375 19.9688 23.4375 19.5938 22.5938 19.3125C22.4062 19.2188 22.125 19.125 21.9375 19.125C21.1875 18.8438 20.8125 18 21 17.1562C21.2812 16.4062 22.125 16.0312 22.9688 16.2188C23.1562 16.3125 23.3438 16.4062 23.625 16.5C24.8438 16.875 25.875 17.25 27 17.25C27.8438 17.3438 28.6875 17.1562 29.25 16.7812C29.7188 16.5 30 16.125 29.9062 15.4688C29.9062 15.0938 29.8125 14.7188 29.25 14.4375C28.5938 13.9688 27.6562 13.6875 26.5312 13.3125H26.3438C25.3125 13.0312 24.0938 12.6562 23.0625 12C21.9375 11.3438 21 10.2188 21 8.53125C21 6.75 21.9375 5.4375 23.1562 4.6875C23.9062 4.3125 24.6562 4.03125 25.5 3.9375V2.25C25.5 1.5 26.1562 0.75 27 0.75C27.75 0.75 28.5 1.5 28.5 2.25ZM14.1562 29.8125C15.375 28.9688 16.7812 28.5 18.2812 28.5H32.25C35.0625 28.5 37.5 30.9375 37.5 33.75C37.5 34.5938 37.3125 35.3438 36.9375 36H37.5L46.3125 30.75C47.1562 30.2812 48 30 48.9375 30H49.0312C51.75 30 54 32.25 54 34.9688C54 36.5625 53.1562 38.1562 51.75 39.0938L40.5 46.3125C38.8125 47.4375 36.8438 48 34.7812 48H1.5C0.65625 48 0 47.3438 0 46.5C0 45.75 0.65625 45 1.5 45H34.7812C36.2812 45 37.6875 44.625 38.9062 43.875L50.0625 36.5625C50.625 36.1875 50.9062 35.625 50.9062 34.9688C50.9062 33.9375 50.0625 33 49.0312 33H48.9375C48.5625 33 48.1875 33.1875 47.9062 33.2812L38.625 38.8125C38.4375 39 38.1562 39 37.875 39H32.25H30H24C23.1562 39 22.5 38.3438 22.5 37.5C22.5 36.75 23.1562 36 24 36H30H32.25C33.4688 36 34.5 35.0625 34.5 33.75C34.5 32.5312 33.4688 31.5 32.25 31.5H18.2812C17.3438 31.5 16.5 31.7812 15.75 32.3438L8.25 37.3125C8.0625 37.5 7.78125 37.5 7.5 37.5H1.5C0.65625 37.5 0 36.8438 0 36C0 35.25 0.65625 34.5 1.5 34.5H7.03125L14.1562 29.8125Z" fill="#E44B0A"/>
</svg>
