<svg width="55" height="49" viewBox="0 0 55 49" fill="none" xmlns="http://www.w3.org/2000/svg">
<path d="M28.271 1.375L53.771 23.875C54.4272 24.4375 54.4272 25.375 53.9585 26.0312C53.396 26.6875 52.4585 26.6875 51.8022 26.125L48.3335 23.0312V41.5C48.3335 45.7188 44.9585 49 40.8335 49H13.8335C9.61475 49 6.3335 45.7188 6.3335 41.5V23.0312L2.771 26.125C2.2085 26.6875 1.17725 26.6875 0.708496 26.0312C0.145996 25.375 0.145996 24.4375 0.802246 23.875L26.3022 1.375C26.8647 0.90625 27.7085 0.90625 28.271 1.375ZM9.3335 41.5C9.3335 44.0312 11.3022 46 13.8335 46H19.8335V31C19.8335 29.4062 21.146 28 22.8335 28H31.8335C33.4272 28 34.8335 29.4062 34.8335 31V46H40.8335C43.271 46 45.3335 44.0312 45.3335 41.5V20.4062L27.3335 4.5625L9.3335 20.4062V41.5ZM22.8335 46H31.8335V31H22.8335V46Z" fill="#E44B0A"/>
</svg>
