<svg width="49" height="43" viewBox="0 0 49 43" fill="none" xmlns="http://www.w3.org/2000/svg">
<path d="M13.0417 20.4062C15.198 19.4688 17.6355 19 20.1667 19H29.1667C29.9167 19 30.6667 19.75 30.6667 20.5C30.6667 21.3438 29.9167 22 29.1667 22H20.1667C17.448 22 14.9167 22.6562 12.6667 23.875C12.7605 31.1875 18.7605 37 26.1667 37C36.3855 37 45.6667 26.6875 45.6667 12.7188C45.6667 10.5625 45.3855 8.5 45.0105 6.53125C42.573 8.6875 39.3855 10 35.9167 10H26.1667C19.7917 10 14.448 14.4062 13.0417 20.4062ZM9.66675 22.0938C10.4167 13.6562 17.5417 7 26.1667 7H35.9167C39.198 7 42.1042 5.5 44.073 3.15625V3.0625C44.3542 2.78125 44.5417 2.5 44.7292 2.21875C44.823 2.03125 45.0105 1.75 45.1042 1.46875C45.4792 0.90625 46.4167 0.8125 46.698 1.46875C46.7917 1.84375 46.8855 2.125 46.9792 2.5C47.073 2.875 47.2605 3.15625 47.3542 3.53125V3.625C48.198 6.53125 48.6667 9.53125 48.6667 12.7188C48.6667 27.8125 38.6355 40 26.2605 40H26.1667C17.7292 40 10.7917 33.8125 9.7605 25.6562C6.0105 28.75 3.66675 33.3438 3.66675 38.5V41.5C3.66675 42.3438 2.91675 43 2.16675 43C1.323 43 0.666748 42.3438 0.666748 41.5V38.5C0.666748 31.6562 4.22925 25.5625 9.66675 22.0938Z" fill="#E44B0A"/>
</svg>
