<svg width="89" height="56" viewBox="0 0 89 56" fill="none" xmlns="http://www.w3.org/2000/svg">
<path d="M43.2685 36.2119C40.9153 37.5944 37.5323 38.49 33.809 38.49C26.3113 38.49 21.6873 34.3403 21.6873 25.6636C21.6873 15.9796 28.1107 12.7256 33.809 12.7256C36.7183 12.7256 40.4438 13.514 43.3597 16.7636L40.9175 18.4475C39.0314 16.5045 36.8072 15.2716 33.7646 15.2716C28.3709 15.2716 25.157 19.122 25.157 25.4045C25.157 32.136 27.8994 36.0623 34.1093 36.0623C36.3357 36.0623 38.8624 35.3878 39.8922 34.7535V27.3476H33.4243V24.806H43.2729V36.2141L43.2685 36.2119Z" fill="white"/>
<path d="M60.3013 19.6068V12.0513H63.1705V34.6777L63.4663 38.0435H60.8973L60.6371 35.8011L60.4881 35.7609C59.0379 37.8179 56.9872 38.5661 55.0144 38.5661C49.5785 38.5661 47.7524 34.2668 47.7524 29.293C47.7524 23.0105 50.8819 18.9323 56.4668 18.9323C57.957 18.9323 59.1113 19.1936 60.3013 19.6068ZM60.3013 22.0747C59.4472 21.6258 58.0682 21.1747 56.3556 21.1747C52.2942 21.1747 50.6194 24.5783 50.6194 28.9536C50.6194 32.8062 51.6626 36.3215 55.4615 36.3215C58.513 36.3215 60.299 34.1886 60.299 32.3193V22.0747H60.3013Z" fill="white"/>
<path d="M78.1015 38.49C71.7314 38.49 67.8992 34.1907 67.8992 25.6636C67.8992 16.0533 73.4107 12.7256 78.4751 12.7256C83.8376 12.7256 88.4929 16.1293 88.4929 25.6636C88.4929 34.2264 84.4715 38.49 78.1015 38.49ZM78.3995 35.9841C83.7954 35.9841 85.4746 30.8607 85.4746 25.7753C85.4746 21.3621 84.0245 15.2694 78.3595 15.2694C72.6945 15.2694 70.9152 20.4665 70.9152 25.5519C70.9152 30.6374 72.2541 35.9841 78.3995 35.9841Z" fill="white"/>
<path d="M11.3027 54.6488C10.0749 54.6488 9.44995 53.9051 9.44995 52.4221V49.4316H10.0816V52.3529C10.0816 53.5924 10.3708 54.0749 11.3027 54.0749C12.2346 54.0749 12.5238 53.5857 12.5238 52.3529V49.4316H13.1488V52.4221C13.1488 53.9029 12.5238 54.6488 11.3027 54.6488Z" fill="white"/>
<path d="M16.5228 54.5504V52.1317C16.5228 51.4416 16.4138 51.1937 15.8912 51.1937C15.5953 51.1937 15.2039 51.3098 14.7034 51.5309V54.5482H14.0918V50.7581H14.7034V51.0552C15.1416 50.8274 15.5397 50.6621 15.9601 50.6621C16.961 50.6621 17.1411 51.2071 17.1411 52.1294V54.5482H16.5228V54.5504Z" fill="white"/>
<path d="M20.186 54.5506V54.296C19.9591 54.4546 19.5476 54.6467 18.9849 54.6467C18.2776 54.6467 17.8595 54.3295 17.8595 53.5724V53.434C17.8595 52.4356 18.5379 52.2614 19.5966 52.2614H20.1593V51.9867C20.1593 51.3323 20.0281 51.1872 19.2741 51.1872C18.8559 51.1872 18.5201 51.2207 18.1064 51.2698V50.8298C18.2154 50.7874 18.738 50.6646 19.3208 50.6646C20.5774 50.6646 20.7754 51.1269 20.7754 51.9867V54.5506H20.186ZM20.1593 52.7327H19.5966C18.8003 52.7327 18.4778 52.8287 18.4778 53.4362V53.6216C18.4778 54.0481 18.738 54.1665 19.1095 54.1665C19.5565 54.1665 20.0014 53.9677 20.1593 53.8628V52.7327Z" fill="white"/>
<path d="M23.2932 52.8845V52.9605C23.2932 53.6149 23.3888 54.1107 24.4319 54.1107C24.8501 54.1107 25.3928 54.0615 25.7486 54.0012V54.497C25.4884 54.5663 25.028 54.6489 24.403 54.6489C23.0641 54.6489 22.6726 54.0504 22.6726 52.822V52.5317C22.6726 51.339 23.202 50.6646 24.2718 50.6646C25.3416 50.6646 25.891 51.3323 25.891 52.6076V52.8823H23.2909L23.2932 52.8845ZM25.2571 52.3039C25.2571 51.8415 25.1615 51.2006 24.2829 51.2006C23.4044 51.2006 23.302 51.8415 23.302 52.3039V52.3731H25.2571V52.3039Z" fill="white"/>
<path d="M30.8822 54.5504V52.0356C30.8822 51.504 30.8822 51.1958 30.3195 51.1958C30.0592 51.1958 29.6945 51.3209 29.3653 51.513C29.392 51.6916 29.392 51.8703 29.392 52.0356V54.5504H28.7737V52.0356C28.7737 51.504 28.7737 51.1958 28.2599 51.1958C27.9307 51.1958 27.5526 51.3678 27.279 51.5264V54.5526H26.6674V50.7625H27.279V51.0596C27.5882 50.8318 27.9796 50.6665 28.4044 50.6665C28.8293 50.6665 29.0917 50.8251 29.2341 51.073C29.6722 50.7826 30.057 50.6665 30.4018 50.6665C31.5005 50.6665 31.5005 51.4527 31.5005 52.0378V54.5526H30.8822V54.5504Z" fill="white"/>
<path d="M33.8648 54.6486C33.6112 54.6486 33.2531 54.5995 33.0196 54.5392V55.9998H32.408V50.7625H32.9974V51.0171C33.3332 50.7826 33.7313 50.6665 34.0961 50.6665C34.9613 50.6665 35.4618 51.1556 35.4618 52.4309V52.8039C35.4618 54.2645 34.7678 54.6509 33.8626 54.6509L33.8648 54.6486ZM34.8546 52.4286C34.8546 51.4973 34.5654 51.2092 34.0027 51.2092C33.7069 51.2092 33.4667 51.2718 33.0218 51.4906V54.0188C33.331 54.0814 33.6112 54.1216 33.867 54.1216C34.4698 54.1216 34.8546 53.9072 34.8546 52.7994V52.4264V52.4286Z" fill="white"/>
<path d="M36.8496 51.54V54.5506H36.2379V50.7606H36.8407V51.0643C37.1965 50.7829 37.6569 50.6646 38.1863 50.6646V51.2162C37.6925 51.2162 37.1365 51.3547 36.8473 51.54H36.8496Z" fill="white"/>
<path d="M39.0516 52.8845V52.9605C39.0516 53.6149 39.1472 54.1107 40.1904 54.1107C40.6085 54.1107 41.1512 54.0615 41.5071 54.0012V54.497C41.2468 54.5663 40.7864 54.6489 40.1614 54.6489C38.8225 54.6489 38.431 54.0504 38.431 52.822V52.5317C38.431 51.339 38.9604 50.6646 40.0302 50.6646C41.1 50.6646 41.6494 51.3323 41.6494 52.6076V52.8823H39.0494L39.0516 52.8845ZM41.0133 52.3039C41.0133 51.8415 40.9177 51.2006 40.0391 51.2006C39.1606 51.2006 39.0583 51.8415 39.0583 52.3039V52.3731H41.0133V52.3039Z" fill="white"/>
<path d="M43.5243 54.6489C42.9949 54.6489 42.4122 54.5395 42.2899 54.497V54.0213C42.5167 54.0414 43.0505 54.1174 43.5043 54.1174C44.1493 54.1174 44.3139 53.9387 44.3139 53.6082C44.3139 53.2776 44.1982 53.1682 43.5532 52.8912L43.2796 52.7751C42.5523 52.4647 42.2432 52.1542 42.2432 51.6093C42.2432 50.975 42.6613 50.6646 43.6088 50.6646C44.1159 50.6646 44.6119 50.7539 44.7476 50.803V51.2653C44.3495 51.2229 43.8957 51.1961 43.6355 51.1961C43.0861 51.1961 42.8593 51.2653 42.8593 51.6093C42.8593 51.9063 42.9838 52.0291 43.5176 52.2637L43.7912 52.3798C44.6697 52.7729 44.93 53.0074 44.93 53.5925C44.93 54.1375 44.6408 54.6467 43.5221 54.6467L43.5243 54.6489Z" fill="white"/>
<path d="M47.737 54.5506V54.296C47.5102 54.4546 47.0987 54.6467 46.536 54.6467C45.8287 54.6467 45.4105 54.3295 45.4105 53.5724V53.434C45.4105 52.4356 46.0889 52.2614 47.1476 52.2614H47.7103V51.9867C47.7103 51.3323 47.5791 51.1872 46.8251 51.1872C46.407 51.1872 46.0711 51.2207 45.6574 51.2698V50.8298C45.7664 50.7874 46.2891 50.6646 46.8718 50.6646C48.1285 50.6646 48.3264 51.1269 48.3264 51.9867V54.5506H47.737ZM47.7103 52.7327H47.1476C46.3514 52.7327 46.0288 52.8287 46.0288 53.4362V53.6216C46.0288 54.0481 46.2891 54.1665 46.6605 54.1665C47.1076 54.1665 47.5524 53.9677 47.7103 53.8628V52.7327Z" fill="white"/>
<path d="M52.3743 52.8328V54.6418H51.5869V48.9668H53.6398C54.892 48.9668 55.4948 49.581 55.4948 50.8406C55.4948 52.1002 54.892 52.8328 53.6398 52.8328H52.3765H52.3743ZM53.6376 52.0734C54.3627 52.0734 54.6874 51.6 54.6874 50.8406C54.6874 50.0813 54.3627 49.7261 53.6376 49.7261H52.3743V52.0734H53.6376Z" fill="white"/>
<path d="M58.6932 52.5983H57.2697V54.6418H56.4801V48.9668H58.5886C59.8342 48.9668 60.4369 49.4916 60.4369 50.7423C60.4369 51.6111 60.1278 52.1248 59.4761 52.3839L60.4681 54.6418H59.5962L58.6932 52.5983ZM58.5886 49.7194H57.2697V51.8479H58.5953C59.3626 51.8479 59.6229 51.4124 59.6229 50.758C59.6229 50.0567 59.287 49.7194 58.5886 49.7194Z" fill="white"/>
<path d="M61.2422 51.8372C61.2422 49.9567 61.7471 48.8779 63.4908 48.8779C65.2346 48.8779 65.7462 49.95 65.7462 51.8372C65.7462 53.7244 65.2413 54.7316 63.4908 54.7316C61.7404 54.7316 61.2422 53.7333 61.2422 51.8372ZM64.9232 51.8372C64.9232 50.4324 64.6541 49.6462 63.4908 49.6462C62.3276 49.6462 62.0562 50.4234 62.0562 51.8372C62.0562 53.2509 62.3187 53.9634 63.4908 53.9634C64.663 53.9634 64.9232 53.2911 64.9232 51.8372Z" fill="white"/>
<path d="M66.8115 48.9668H68.1394L69.5962 53.514L71.0619 48.9668H72.372V54.6418H71.5824V49.9316H71.4578L70.0121 54.4297H69.1736L67.7212 49.9316H67.6011V54.6418H66.8115V48.9668Z" fill="white"/>
<path d="M74.4894 48.9668H73.6998V54.6418H74.4894V48.9668Z" fill="white"/>
<path d="M78.0235 51.7141H79.596V54.5349C79.596 54.5349 78.4395 54.7314 77.7478 54.7314C76.0218 54.7314 75.5325 53.6683 75.5325 51.8035C75.5325 49.9386 76.0463 48.8755 77.7233 48.8755C78.5796 48.8755 79.596 49.1033 79.596 49.1033L79.5627 49.7979C79.5627 49.7979 78.5707 49.6505 77.8278 49.6505C76.6379 49.6505 76.3443 50.2736 76.3443 51.8012C76.3443 53.3289 76.5978 53.9609 77.8011 53.9609C78.2326 53.9609 78.7864 53.8716 78.8109 53.8716V52.4243H78.0213V51.7119L78.0235 51.7141Z" fill="white"/>
<path d="M81.7203 48.9668H83.3395L84.7719 54.6329H83.9734L83.6086 53.3666H81.4111L81.0597 54.6418H80.2701L81.7203 48.9668ZM81.5824 52.605H83.4485L82.7212 49.7016H82.3231L81.5824 52.605Z" fill="white"/>
<path d="M88.8199 49.7754C88.8199 49.7754 87.6789 49.6369 87.2073 49.6369C86.4734 49.6369 86.0997 49.8826 86.0997 50.4298C86.0997 51.0373 86.4333 51.1668 87.3942 51.4036C88.5441 51.7051 89 52.0088 89 53.0071C89 54.2087 88.2683 54.7224 87.1273 54.7224C86.5156 54.7224 85.408 54.5348 85.408 54.5348L85.4903 53.8156C85.4903 53.8156 86.5401 53.9541 87.1184 53.9541C87.8523 53.9541 88.2104 53.7017 88.2104 53.0317C88.2104 52.4934 87.9257 52.3192 87.0472 52.116C85.8506 51.8368 85.3057 51.5018 85.3057 50.4477C85.3057 49.3935 86.0374 48.8687 87.2096 48.8687C87.8368 48.8687 88.8888 49.0563 88.8888 49.0563L88.8221 49.7754H88.8199Z" fill="white"/>
<path d="M4.04517 30.4791C3.91394 29.7599 3.4958 27.2474 3.70265 25.1122C4.1675 20.3238 8.67147 11.6114 8.67147 8.24567C8.67147 4.87996 7.71507 3.04634 7.71507 3.04634C7.71507 3.04634 9.70794 5.13903 9.50776 8.40871C9.30536 11.6784 7.98197 14.622 7.37922 16.4668C6.75422 18.3808 5.12612 21.9475 4.76136 25.1591C4.45887 27.8169 4.97043 30.8788 4.97265 30.8922C5.29961 31.0195 5.61544 31.1267 5.90459 31.2071C8.13989 31.8146 10.522 31.8258 12.7306 32.5405C12.8262 32.5718 12.9197 32.6119 13.0153 32.6455C13.8182 30.7046 14.6189 28.7772 15.1416 26.861C18.1153 15.9576 15.1416 7.19821 5.75112 0L4.33209 1.96538C5.998 5.01396 6.62744 7.8325 5.51758 11.0597C4.2409 14.7873 2.35924 16.5114 0.897955 20.1764C0.00828264 22.4031 -0.187445 24.8956 0.166199 27.4149C1.01584 28.6254 2.56609 29.742 4.0474 30.4791" fill="white"/>
<path d="M12.4258 39.4575C14.5188 39.7813 16.2603 39.8617 18.9827 40.6568C19.492 40.8042 19.9235 41.0209 20.2972 41.2732C21.9453 42.3899 22.3523 44.2414 22.3812 44.3933C22.2923 40.9003 20.5018 37.7981 17.7594 35.8595C16.6317 35.0644 15.3484 34.4614 13.9449 34.1152C13.4734 33.9969 12.9952 33.9165 12.5126 33.8517C10.6998 33.6016 8.84043 33.6217 7.04107 33.2688C5.08824 32.8891 2.08782 31.3972 0.842277 29.6172L0.617634 29.6641H0.610962C0.635428 29.7534 0.664342 29.8405 0.688808 29.9276C0.733292 30.0862 0.78 30.2448 0.828932 30.4011C1.28711 31.9198 1.89431 33.4005 2.64164 34.7964C4.40319 38.0862 6.94098 40.8779 10.1193 42.4681C10.1349 42.477 10.1527 42.4837 10.1683 42.4927C10.969 42.888 11.8053 43.2163 12.6838 43.4486C14.799 44.0069 17.13 43.2319 19.025 43.5937C19.1784 43.6228 19.3252 43.6563 19.472 43.7009C20.1126 43.8975 20.6886 44.2548 21.1824 44.8824L22.2834 44.4335C21.9453 43.4195 21.2692 42.687 20.3928 42.1376C18.2732 40.8042 14.9592 40.5563 12.3102 40.1476C11.6807 40.0493 11.0935 39.8997 10.5464 39.7233C7.70387 38.7964 6.01572 37.0276 6.01572 37.0276C7.16785 37.9969 8.96498 38.687 10.6909 39.1113C11.2848 39.2565 11.872 39.3749 12.4214 39.4597" fill="white"/>
</svg>
