<svg width="106" height="52" viewBox="0 0 106 52" fill="none" xmlns="http://www.w3.org/2000/svg">
<path d="M2.23247 46.6713V51.7493H0V35.8188H5.81249C9.36303 35.8188 11.0715 37.542 11.0715 41.0781C11.0715 44.6142 9.36303 46.6719 5.81249 46.6719H2.23307L2.23247 46.6713ZM5.81189 44.5383C7.86449 44.5383 8.78491 43.2082 8.78491 41.0781C8.78491 38.9481 7.86449 37.9501 5.81189 37.9501H2.23247V44.5389H5.81189V44.5383Z" fill="white"/>
<path d="M20.138 46.0095H16.0996V51.7493H13.8623V35.8188H19.836C23.3661 35.8188 25.0764 37.2907 25.0764 40.7999C25.0764 43.2351 24.1987 44.6783 22.356 45.41L25.166 51.7493H22.6941L20.1368 46.0095H20.138ZM19.8366 37.9297H16.1002V43.901H19.8589C22.0324 43.901 22.7681 42.6823 22.7681 40.8442C22.7681 38.8727 21.8212 37.9297 19.8366 37.9297Z" fill="white"/>
<path d="M27.3595 43.8741C27.3595 38.5956 28.7883 35.5669 33.7272 35.5669C38.6662 35.5669 40.1191 38.5747 40.1191 43.8741C40.1191 49.1734 38.6843 51.9993 33.7272 51.9993C28.7702 51.9993 27.3595 49.1962 27.3595 43.8741ZM37.7885 43.8741C37.7885 39.9269 37.0239 37.7257 33.7272 37.7257C30.4306 37.7257 29.6636 39.9083 29.6636 43.8741C29.6636 47.8398 30.4041 49.8412 33.7272 49.8412C37.0504 49.8412 37.7885 47.9582 37.7885 43.8741Z" fill="white"/>
<path d="M43.14 35.8184H46.9011L51.0292 48.5807L55.1795 35.8184H58.8955V51.7488H56.657V38.5282H56.3056L52.2053 51.1481H49.829L45.7172 38.5282H45.3743V51.7488H43.1406V35.8184H43.14Z" fill="white"/>
<path d="M62.6549 35.8184H64.8946V51.7488H62.6549V35.8184Z" fill="white"/>
<path d="M74.9048 43.5286H79.3577V51.4475C79.3577 51.4475 76.0797 52.0003 74.1221 52.0003C69.227 52.0003 67.8446 49.0177 67.8446 43.7829C67.8446 38.5481 69.2986 35.5679 74.0493 35.5679C76.4713 35.5679 79.3577 36.2123 79.3577 36.2123L79.2687 38.1628C79.2687 38.1628 76.4526 37.7506 74.3513 37.7506C70.9795 37.7506 70.1517 39.4971 70.1517 43.7829C70.1517 48.0687 70.8682 49.8415 74.2821 49.8415C75.504 49.8415 77.0717 49.5879 77.1433 49.5879V45.53H74.9048V43.5286Z" fill="white"/>
<path d="M85.3801 35.8184H89.969L94.0291 51.7213H91.7671L90.7312 48.1666H84.5018L83.5074 51.7488H81.2689L85.3795 35.8184H85.3801ZM84.9861 46.0336H90.2716L88.2124 37.8862H87.085L84.9861 46.0336Z" fill="white"/>
<path d="M105.496 38.0909C105.496 38.0909 102.265 37.7013 100.926 37.7013C98.8495 37.7013 97.7877 38.3894 97.7877 39.9265C97.7877 41.6282 98.7334 41.9931 101.454 42.6585C104.712 43.5063 106 44.3601 106 47.1549C106 50.5301 103.928 51.9744 100.696 51.9744C98.9632 51.9744 95.826 51.4473 95.826 51.4473L96.0582 49.4279C96.0582 49.4279 99.0336 49.8175 100.672 49.8175C102.746 49.8175 103.763 49.1072 103.763 47.2273C103.763 45.7153 102.957 45.2307 100.464 44.6563C97.0749 43.8755 95.5282 42.9343 95.5282 39.9774C95.5282 37.0204 97.6025 35.5474 100.926 35.5474C102.707 35.5474 105.682 36.0769 105.682 36.0769L105.495 38.092L105.496 38.0909Z" fill="white"/>
<path d="M93.2808 18.1567C93.2808 18.1567 98.6186 13.3707 105.311 13.3384V18.1441L93.2808 18.1567Z" fill="white"/>
<path d="M39.8549 24.1155C42.8869 25.7125 45.8286 27.2597 49.6613 28.3349L49.6348 28.3236C49.0411 28.0615 48.4623 27.7815 47.8986 27.4859L47.7856 27.4273C47.2471 27.1467 46.7274 26.8517 46.219 26.5447L46.0969 26.47C45.5657 26.1493 45.049 25.8172 44.549 25.4773L44.5238 25.4588C44.0281 25.1213 43.542 24.7731 43.0697 24.4225L42.9344 24.3178C42.4826 23.9791 42.0428 23.6351 41.6097 23.2875L41.5092 23.2061C41.0659 22.8477 40.6327 22.4869 40.202 22.1237L40.0348 21.9813C39.6546 21.6564 39.2804 21.3297 38.9098 21.0048C38.8117 20.9187 38.7137 20.8337 38.6174 20.7476C38.3461 20.5082 38.0772 20.2683 37.8089 20.032C37.6982 19.9356 37.5893 19.8375 37.4822 19.7436C32.8284 15.6055 28.8074 12.0317 22.9841 12.0317C22.7567 12.0317 22.5233 12.0395 22.2911 12.0491L22.0553 12.0664C21.9019 12.0754 21.7455 12.085 21.5908 12.0999C21.4928 12.1113 21.3959 12.1215 21.2961 12.1335C21.1577 12.1496 21.0187 12.1658 20.8792 12.1855C20.7751 12.1993 20.6656 12.2166 20.5555 12.2352C20.4238 12.2555 20.2908 12.2777 20.1597 12.3004C20.049 12.3225 19.9359 12.3477 19.8222 12.3692C19.6904 12.3955 19.5599 12.4218 19.4282 12.453C19.3127 12.4781 19.1935 12.5092 19.0756 12.5367C18.9451 12.569 18.8121 12.6025 18.6804 12.6378C18.5637 12.669 18.4434 12.7043 18.3225 12.739C18.1907 12.779 18.056 12.8173 17.9206 12.8586C17.7991 12.8951 17.6812 12.9364 17.5602 12.9735L17.3052 13.0609V18.1628C28.7425 18.2699 34.3895 21.243 39.8555 24.1161" fill="white"/>
<path d="M63.3244 2.48724C63.3244 2.48724 63.0206 2.36997 62.4846 2.20783C60.5475 1.55326 55.2157 0 48.2067 0C36.684 0 27.2379 6.27465 24.9471 7.94279C24.5392 8.21742 24.313 8.38196 24.313 8.38196C24.2589 8.46572 24.372 8.42324 24.372 8.42324C24.7299 8.26708 25.1023 8.11331 25.4831 7.96253C27.4076 7.27924 31.8346 5.936 36.7832 6.01079C36.7832 6.01079 46.1336 0.689272 62.0996 2.361C62.5003 2.41485 62.8955 2.47588 63.2763 2.54109C63.2763 2.54109 63.3966 2.55605 63.3238 2.48724H63.3244Z" fill="white"/>
<path d="M95.9687 12.2733C84.23 12.2733 81.02 14.3836 70.6499 14.3836C56.5236 14.3836 48.6603 6.98291 37.0828 6.98291C30.3325 6.98291 25.8802 8.63728 24.6126 9.17458C24.3654 9.27091 24.2108 9.32835 24.2108 9.32835C24.1867 9.35827 24.2354 9.35228 24.2354 9.35228C24.4177 9.31579 24.6096 9.27989 24.8021 9.24758V9.24518C25.8152 9.07526 28.0326 8.7396 29.9396 8.7396C44.4889 8.7396 50.1576 18.5288 64.2238 18.5288C74.387 18.5288 84.9249 13.1535 95.9453 13.1535C97.2044 13.1535 99.8032 13.4957 99.8032 13.4957L102.727 12.9285C102.727 12.9285 101.506 12.2727 95.9687 12.2727V12.2733Z" fill="white"/>
<path d="M91.7353 11.6962C91.7353 11.6962 91.6739 11.686 91.5722 11.6729C85.5624 10.9399 81.5035 9.55001 76.6476 7.78794C72.5484 6.2993 68.7091 4.36431 64.3729 3.62478C56.118 2.21512 46.6021 2.78054 38.8207 6.10066C39.4199 6.14912 40.0184 6.21075 40.6146 6.29152C49.2293 7.31287 56.9668 11.8171 65.5339 13.073C74.2942 14.3552 82.4174 11.6896 91.5993 11.7142H91.6017C91.6432 11.7106 91.6847 11.7106 91.7262 11.7106C91.7262 11.7106 91.7503 11.7082 91.7353 11.6968V11.6962Z" fill="white"/>
<path d="M98.6137 13.9664C98.6137 13.9664 98.2659 13.964 97.8316 13.964C97.1801 13.9401 96.2813 13.9102 95.7712 13.9102C84.4398 13.9102 77.9475 19.5027 64.2043 19.5027C60.9907 19.5027 57.3042 18.6998 57.3042 18.6998C57.3042 18.6998 64.2092 22.8139 72.9796 22.8139C80.6354 22.8139 86.8046 17.0089 96.9322 14.408C97.1241 14.3595 97.5964 14.2446 97.9916 14.1483C98.1962 14.101 98.3983 14.0561 98.5968 14.0173C98.5968 14.0173 98.6648 13.9897 98.6143 13.9664H98.6137Z" fill="white"/>
<path d="M95.6523 15.5894L94.9707 15.803C90.966 17.1378 87.3366 19.2081 83.5448 21.0425C79.9943 22.7597 76.1977 23.8594 72.6478 23.8894C68.4006 23.9247 64.3465 22.859 59.9857 20.9462C48.1092 15.7354 35.5109 6.32309 21.9879 10.9194C21.5536 11.0481 21.2684 11.1253 21.2684 11.1253C21.1992 11.1803 21.3069 11.1779 21.3069 11.1779C21.6318 11.148 21.9699 11.1253 22.3116 11.1067C29.927 10.8423 35.2588 16.6735 40.6755 21.2896C46.7142 26.4352 53.5301 29.7966 61.6304 29.7966C69.1556 29.7966 76.3619 27.9897 82.8199 24.1239C87.0021 21.6217 90.8011 18.5559 94.9111 16.0662C95.1596 15.9179 95.4068 15.7767 95.6493 15.6456C95.6493 15.6456 95.7287 15.5948 95.6517 15.5894H95.6523Z" fill="white"/>
</svg>
