<svg width="103" height="40" viewBox="0 0 103 40" fill="none" xmlns="http://www.w3.org/2000/svg">
<path d="M22.899 10.6154C24.5319 10.6154 26.0296 11.3665 27.3738 12.5339L28.5106 11.1583C27.2926 9.93662 25.2537 8.85065 22.917 8.85065C19.6782 8.85065 17.4588 10.7421 17.4588 13.6289C17.4588 16.8235 19.8947 17.7556 22.3757 18.4344C24.4417 19.0045 26.2551 19.6832 26.2551 21.7556C26.2551 24.4072 24.3695 24.9502 22.6283 24.9502C20.5803 24.9502 18.7489 24.0181 17.9459 23.466L17.0889 25.1493C17.7926 25.7194 20.0932 26.733 22.5742 26.733C26.201 26.733 28.3753 24.914 28.3753 21.6742C28.3753 18.4344 25.9394 17.4932 23.5576 16.7421C21.3292 16.0724 19.5699 15.466 19.5699 13.4208C19.5699 11.2398 21.4284 10.6154 22.8809 10.6154H22.899Z" fill="white"/>
<path d="M40.9613 13.5204H38.9673V22.0905C38.9673 23.5928 37.3613 25.2036 35.5478 25.2036C33.2651 25.2036 32.8771 23.7195 32.8771 21.7738V13.5204H30.8561V22.353C30.8561 25.3394 32.2546 26.7964 35.0245 26.7964C36.5764 26.7964 38.1282 26.1448 39.0846 24.6697H39.1388L39.3463 26.4344H41.1328L40.9523 24.543V13.5385L40.9613 13.5204Z" fill="white"/>
<path d="M46.1394 15.3846L45.9048 13.5113H44.1725L44.3259 15.276V26.4162H46.3198V18.19C46.4011 16.4524 47.4567 14.9411 49.1168 14.9411C49.7665 14.9411 50.3619 15.2036 50.8041 15.4389L51.4266 13.647C50.9394 13.3393 50.1815 13.1583 49.3785 13.1583C47.8988 13.1583 46.762 13.9366 46.1394 15.3936V15.3846Z" fill="white"/>
<path d="M59.9794 23.8733C59.826 23.9638 59.6185 24.0814 59.3658 24.2262C59.1222 24.371 58.8516 24.5068 58.5538 24.6244C58.2561 24.7511 57.9403 24.8597 57.5974 24.9502C57.011 25.1131 56.4877 25.1403 56.0095 24.9683C55.8019 24.8959 55.6305 24.7783 55.4862 24.6063C55.3328 24.4344 55.2155 24.19 55.1162 23.8914C55.017 23.5837 54.9719 23.1855 54.9719 22.7059V15.1584H59.0681V13.2489H54.9719C54.9719 12.905 54.9448 12.552 54.9087 12.2172C54.8636 11.8461 54.7824 11.4751 54.6471 11.1041C54.5207 10.7421 54.3493 10.3982 54.1418 10.0724C53.9253 9.74659 53.6456 9.44795 53.2937 9.19455L53.1313 9.0769L51.9313 10.2353L52.0937 10.4072C52.4095 10.7421 52.6531 11.1493 52.8155 11.6199C52.9779 12.0995 53.0591 12.6697 53.0591 13.3303V22.7059C53.0591 23.4841 53.1493 24.1538 53.3298 24.6878C53.5192 25.2308 53.7628 25.6742 54.0696 25.9909C54.3764 26.3258 54.7373 26.5611 55.1523 26.7059C55.5493 26.8416 55.9734 26.914 56.4065 26.914C56.8756 26.914 57.3448 26.8597 57.823 26.7421C58.2922 26.6244 58.7343 26.4796 59.1403 26.3167C59.5553 26.1448 59.9072 25.9728 60.214 25.8009C60.5207 25.6289 60.7463 25.4841 60.8997 25.3665L61.0801 25.2308L60.1689 23.7556L59.9704 23.8642L59.9794 23.8733Z" fill="white"/>
<path d="M64.6253 13.5204H62.6042V26.4254H64.6253V13.5204Z" fill="white"/>
<path d="M63.6149 8.47961C62.8389 8.47961 62.2705 9.0769 62.2705 9.82803C62.2705 10.6335 62.8119 11.2036 63.5878 11.2036C64.3637 11.2036 64.9592 10.6335 64.9592 9.82803C64.9592 9.0769 64.3637 8.47961 63.6149 8.47961Z" fill="white"/>
<path d="M76.1552 12.7874C75.4425 12.6245 74.4861 12.534 73.2953 12.534C72.3389 12.534 71.4728 12.715 70.715 13.0589C69.9481 13.4118 69.2985 13.9005 68.7663 14.5159C68.243 15.1313 67.828 15.8643 67.5483 16.6969C67.2686 17.5295 67.1243 18.4345 67.1243 19.4118C67.1243 20.6064 67.2867 21.6381 67.6024 22.4797C67.9182 23.3213 68.3512 24.0272 68.8745 24.5702C69.4068 25.1132 70.0383 25.5114 70.7421 25.7648C71.4458 26.0091 72.1765 26.1358 72.9254 26.1358C73.3945 26.1358 73.8185 26.0906 74.1974 26.0182C74.5764 25.9367 74.9192 25.8281 75.2079 25.7105C75.5056 25.5838 75.7492 25.4661 75.9477 25.3485C75.9928 25.3213 76.0379 25.3032 76.074 25.2761V25.7557C76.074 27.1765 75.7582 28.1901 75.1357 28.7602C74.5042 29.3394 73.4576 29.629 72.0232 29.629C71.3555 29.629 70.6879 29.5657 70.0293 29.4299C69.3797 29.2942 68.8565 29.1313 68.4866 28.9503L68.243 28.8326L67.837 30.8055L68.0084 30.8688C68.4866 31.0408 69.064 31.2037 69.7316 31.3304C70.3902 31.4661 71.148 31.5295 71.9781 31.5295C73.9809 31.5295 75.5056 31.077 76.5161 30.1901C77.5355 29.2942 78.0498 27.801 78.0498 25.7376V13.3304L77.9054 13.2851C77.4544 13.1313 76.8589 12.9684 76.1462 12.7964L76.1552 12.7874ZM76.056 14.7874V23.1856C75.7582 23.439 75.3432 23.6652 74.8109 23.8643C74.2426 24.0815 73.611 24.1901 72.9254 24.1901C72.4652 24.1901 72.0141 24.0996 71.563 23.9277C71.13 23.7557 70.733 23.4842 70.3902 23.1132C70.0474 22.7331 69.7587 22.2444 69.5421 21.6381C69.3256 21.0317 69.2083 20.2987 69.2083 19.439C69.2083 18.6969 69.3076 18.0182 69.488 17.4118C69.6775 16.8055 69.9481 16.2806 70.3 15.8462C70.6518 15.4118 71.0849 15.077 71.5811 14.8417C72.0773 14.6064 72.6637 14.4887 73.3043 14.4887C74.0982 14.4887 74.7207 14.5249 75.1447 14.6064C75.4966 14.6697 75.7943 14.7331 76.0469 14.8055L76.056 14.7874Z" fill="white"/>
<path d="M91.4383 13.9909C89.7783 13.3665 88.001 13.1583 87.189 13.1583C82.8946 13.1583 80.6932 15.9366 80.6932 20.5339C80.6932 24.2986 82.2179 26.7873 85.8177 26.7873C87.8386 26.7873 88.9483 25.8009 89.5979 24.8687L89.6791 24.8959L89.8324 26.4253H91.6458L91.4383 24.1629V13.9819V13.9909ZM89.4445 22.3257C89.4445 23.7828 88.2536 25.285 86.0793 25.285C83.3637 25.285 82.6871 22.8687 82.6871 20.6153C82.6871 17.2941 83.7517 14.7511 86.8552 14.7511C87.9469 14.7511 88.9754 14.9864 89.4445 15.1945V22.3348V22.3257Z" fill="white"/>
<path d="M98.5298 19.0226C97.0592 18.5791 95.787 18.2172 95.787 16.6877C95.787 15.2579 97.0321 14.6877 98.1419 14.6877C99.4682 14.6877 100.497 15.285 101.354 16.0905L102.518 14.8959C101.588 13.9638 100.064 13.1583 98.2231 13.1583C95.9674 13.1583 93.9013 14.38 93.9013 16.9773C93.9013 19.5746 95.7419 20.1991 97.808 20.6877C99.3148 21.0497 100.479 21.5203 100.479 23.0226C100.479 24.5248 99.3689 25.2307 97.9163 25.2307C96.4637 25.2307 95.1464 24.6063 94.3975 24.0905L93.6216 25.5475C94.1629 26.0181 95.8502 26.7963 97.9434 26.7963C100.578 26.7963 102.446 25.3936 102.446 22.8506C102.446 20.3076 100.398 19.6018 98.5389 19.0316L98.5298 19.0226Z" fill="white"/>
<path d="M50.8939 39.1041C50.0729 39.1041 49.6578 38.6063 49.6578 37.6199V35.629H50.0819V37.5747C50.0819 38.3982 50.2714 38.724 50.8939 38.724C51.5165 38.724 51.706 38.3982 51.706 37.5747V35.629H52.121V37.6199C52.121 38.6063 51.706 39.1041 50.8939 39.1041Z" fill="white"/>
<path d="M54.3583 39.0316V37.4208C54.3583 36.9592 54.2861 36.7963 53.9433 36.7963C53.7448 36.7963 53.4831 36.8778 53.1493 37.0226V39.0316H52.7433V36.5158H53.1493V36.7149C53.438 36.5611 53.7087 36.4525 53.9884 36.4525C54.6561 36.4525 54.7734 36.8144 54.7734 37.4298V39.0407H54.3583V39.0316Z" fill="white"/>
<path d="M56.7942 39.0316V38.8597C56.6408 38.9683 56.3701 39.095 55.9912 39.095C55.522 39.095 55.2423 38.8868 55.2423 38.3801V38.2896C55.2423 37.6289 55.6934 37.5113 56.3972 37.5113H56.7761V37.3303C56.7761 36.8959 56.6859 36.7963 56.1897 36.7963C55.91 36.7963 55.6844 36.8235 55.4137 36.8506V36.5611C55.4859 36.5339 55.8378 36.4525 56.2258 36.4525C57.0649 36.4525 57.1912 36.7601 57.1912 37.3303V39.0316H56.8032H56.7942ZM56.7761 37.828H56.3972C55.8649 37.828 55.6573 37.8914 55.6573 38.2986V38.4253C55.6573 38.7058 55.8288 38.7873 56.0814 38.7873C56.3792 38.7873 56.6769 38.6515 56.7761 38.5882V37.8371V37.828Z" fill="white"/>
<path d="M58.8601 37.9276V37.9819C58.8601 38.4163 58.9233 38.7511 59.618 38.7511C59.8977 38.7511 60.2586 38.7149 60.4932 38.6787V39.0045C60.3218 39.0498 60.015 39.1041 59.6 39.1041C58.7067 39.1041 58.4451 38.7059 58.4451 37.8914V37.7014C58.4451 36.905 58.7969 36.4615 59.5097 36.4615C60.2225 36.4615 60.5924 36.905 60.5924 37.7557V37.9367H58.8601V37.9276ZM60.1684 37.5385C60.1684 37.2308 60.1052 36.8054 59.5187 36.8054C58.9323 36.8054 58.8691 37.2308 58.8691 37.5385V37.5837H60.1684V37.5385Z" fill="white"/>
<path d="M63.9035 39.0317V37.3575C63.9035 37.0046 63.9035 36.7964 63.5246 36.7964C63.3532 36.7964 63.1096 36.8779 62.893 37.0046C62.9111 37.1222 62.9111 37.2399 62.9111 37.3485V39.0227H62.496V37.3485C62.496 36.9955 62.496 36.7874 62.1532 36.7874C61.9366 36.7874 61.684 36.905 61.5036 37.0046V39.0136H61.0975V36.4978H61.5036V36.6969C61.7111 36.543 61.9727 36.4344 62.2524 36.4344C62.5321 36.4344 62.7126 36.543 62.8028 36.7059C63.0915 36.5159 63.3532 36.4344 63.5787 36.4344C64.3096 36.4344 64.3096 36.9593 64.3096 37.3485V39.0227H63.8945L63.9035 39.0317Z" fill="white"/>
<path d="M65.8794 39.104C65.7079 39.104 65.4733 39.0678 65.32 39.0316V40H64.9139V36.5158H65.3109V36.6877C65.5365 36.5339 65.7981 36.4525 66.0418 36.4525C66.6192 36.4525 66.953 36.7782 66.953 37.6289V37.8733C66.953 38.8416 66.4929 39.104 65.8884 39.104M66.538 37.6289C66.538 37.0135 66.3485 36.8144 65.9696 36.8144C65.7711 36.8144 65.6087 36.8597 65.32 37.0045V38.6877C65.5275 38.733 65.7169 38.7601 65.8794 38.7601C66.2763 38.7601 66.538 38.6154 66.538 37.8823V37.638V37.6289Z" fill="white"/>
<path d="M67.864 37.0316V39.0316H67.458V36.5158H67.864V36.7149C68.0986 36.5249 68.4054 36.4525 68.7573 36.4525V36.8235C68.4324 36.8235 68.0535 36.914 67.864 37.0407" fill="white"/>
<path d="M69.3257 37.9276V37.9819C69.3257 38.4163 69.3888 38.7511 70.0836 38.7511C70.3633 38.7511 70.7242 38.7149 70.9588 38.6787V39.0045C70.7873 39.0498 70.4806 39.1041 70.0655 39.1041C69.1723 39.1041 68.9106 38.7059 68.9106 37.8914V37.7014C68.9106 36.905 69.2625 36.4615 69.9753 36.4615C70.6881 36.4615 71.058 36.905 71.058 37.7557V37.9367H69.3257V37.9276ZM70.6249 37.5385C70.6249 37.2308 70.5618 36.8054 69.9753 36.8054C69.3888 36.8054 69.3257 37.2308 69.3257 37.5385V37.5837H70.6249V37.5385Z" fill="white"/>
<path d="M72.2938 39.1041C71.9419 39.1041 71.554 39.0317 71.4728 39.0045V38.6878C71.6261 38.7059 71.978 38.7511 72.2848 38.7511C72.7179 38.7511 72.8261 38.6335 72.8261 38.4163C72.8261 38.1991 72.7449 38.1177 72.3209 37.9367L72.1404 37.8552C71.6532 37.6471 71.4547 37.4389 71.4547 37.086C71.4547 36.6606 71.7344 36.4615 72.366 36.4615C72.7088 36.4615 73.0337 36.5249 73.1239 36.552V36.8597C72.8622 36.8326 72.5555 36.8145 72.384 36.8145C72.0231 36.8145 71.8697 36.8597 71.8697 37.086C71.8697 37.2851 71.9509 37.3665 72.3119 37.5204L72.4923 37.6018C73.0788 37.8643 73.2502 38.0181 73.2502 38.4072C73.2502 38.7692 73.0607 39.1041 72.3119 39.1041" fill="white"/>
<path d="M75.0997 39.0316V38.8597C74.9463 38.9683 74.6757 39.095 74.2967 39.095C73.8276 39.095 73.5479 38.8868 73.5479 38.3801V38.2896C73.5479 37.6289 73.999 37.5113 74.7027 37.5113H75.0817V37.3303C75.0817 36.8959 74.9915 36.7963 74.4952 36.7963C74.2155 36.7963 73.99 36.8235 73.7193 36.8506V36.5611C73.7915 36.5339 74.1343 36.4525 74.5313 36.4525C75.3704 36.4525 75.4967 36.7601 75.4967 37.3303V39.0316H75.0997ZM75.0817 37.828H74.7027C74.1704 37.828 73.9629 37.8914 73.9629 38.2986V38.4253C73.9629 38.7058 74.1343 38.7873 74.3779 38.7873C74.6757 38.7873 74.9734 38.6515 75.0817 38.5882V37.8371V37.828Z" fill="white"/>
<path d="M78.2121 37.8914V39.095H77.6888V35.3213H79.0512C79.8813 35.3213 80.2873 35.7285 80.2873 36.5702C80.2873 37.4118 79.8903 37.8914 79.0512 37.8914H78.2121ZM79.0512 37.3846C79.5385 37.3846 79.746 37.0679 79.746 36.5611C79.746 36.0543 79.5294 35.819 79.0512 35.819H78.2121V37.3756H79.0512V37.3846Z" fill="white"/>
<path d="M82.4165 37.7376H81.4691V39.095H80.9458V35.3213H82.3443C83.1744 35.3213 83.5714 35.6742 83.5714 36.4978C83.5714 37.0769 83.3638 37.4118 82.9308 37.5928L83.5894 39.095H83.012L82.4075 37.7376H82.4165ZM82.3443 35.8281H81.4691V37.2398H82.3533C82.8676 37.2398 83.039 36.9502 83.039 36.5159C83.039 36.0453 82.8135 35.8281 82.3533 35.8281" fill="white"/>
<path d="M84.1124 37.2308C84.1124 35.982 84.4463 35.267 85.6102 35.267C86.7741 35.267 87.1079 35.982 87.1079 37.2308C87.1079 38.4797 86.7741 39.1584 85.6102 39.1584C84.4463 39.1584 84.1124 38.4978 84.1124 37.2308ZM86.5666 37.2308C86.5666 36.2987 86.3861 35.7738 85.6102 35.7738C84.8342 35.7738 84.6538 36.2897 84.6538 37.2308C84.6538 38.172 84.8252 38.6426 85.6102 38.6426C86.3951 38.6426 86.5666 38.1992 86.5666 37.2308Z" fill="white"/>
<path d="M87.8206 35.3213H88.7048L89.6702 38.3439L90.6446 35.3213H91.5198V39.095H90.9965V35.9638H90.9063L89.9499 38.9503H89.3905L88.4251 35.9638H88.3439V39.095H87.8206V35.3213Z" fill="white"/>
<path d="M92.927 35.3213H92.4037V39.095H92.927V35.3213Z" fill="white"/>
<path d="M95.2727 37.1493H96.3193V39.0226C96.3193 39.0226 95.5524 39.1493 95.0923 39.1493C93.9464 39.1493 93.6216 38.4435 93.6216 37.2036C93.6216 35.9638 93.9644 35.2579 95.0742 35.2579C95.6426 35.2579 96.3193 35.4118 96.3193 35.4118L96.3013 35.8733C96.3013 35.8733 95.6426 35.7738 95.1464 35.7738C94.3524 35.7738 94.1629 36.1901 94.1629 37.2036C94.1629 38.2172 94.3344 38.6426 95.1374 38.6426C95.4261 38.6426 95.796 38.5792 95.8141 38.5792V37.6199H95.2908V37.1493H95.2727Z" fill="white"/>
<path d="M97.7356 35.3213H98.8092L99.7656 39.086H99.2333L98.9897 38.2444H97.528L97.2935 39.095H96.7701L97.7356 35.3213ZM97.6453 37.7466H98.8904L98.4032 35.819H98.1416L97.6453 37.7466Z" fill="white"/>
<path d="M102.463 35.8643C102.463 35.8643 101.705 35.7738 101.389 35.7738C100.902 35.7738 100.65 35.9367 100.65 36.2987C100.65 36.7059 100.875 36.7873 101.507 36.9412C102.274 37.1403 102.571 37.3484 102.571 38.0091C102.571 38.8054 102.084 39.1493 101.326 39.1493C100.92 39.1493 100.18 39.0226 100.18 39.0226L100.235 38.543C100.235 38.543 100.929 38.6335 101.317 38.6335C101.805 38.6335 102.039 38.4616 102.039 38.0181C102.039 37.6561 101.85 37.5475 101.263 37.4118C100.469 37.2308 100.108 37.0045 100.108 36.3077C100.108 35.6109 100.595 35.2579 101.371 35.2579C101.786 35.2579 102.49 35.3846 102.49 35.3846L102.445 35.8643H102.463Z" fill="white"/>
<path d="M3.34364 20.8951C3.2537 20.4021 2.96714 18.6796 3.1089 17.2158C3.42747 13.9331 6.51411 7.96026 6.51411 5.65287C6.51411 3.34548 5.85868 2.08844 5.85868 2.08844C5.85868 2.08844 7.22442 3.52309 7.08724 5.76464C6.94853 8.00619 6.04159 10.0242 5.62851 11.2889C5.20019 12.6011 4.08443 15.0463 3.83445 17.248C3.62715 19.07 3.97773 21.1692 3.97925 21.1784C4.20332 21.2656 4.41977 21.3391 4.61792 21.3942C6.14981 21.8107 7.78231 21.8184 9.2959 22.3083C9.36145 22.3298 9.42547 22.3573 9.49101 22.3803C10.0413 21.0497 10.59 19.7284 10.9482 18.4147C12.9862 10.9398 10.9482 4.93478 4.51275 0L3.54027 1.34738C4.68194 3.43735 5.11331 5.36962 4.3527 7.58207C3.47777 10.1375 2.18824 11.3195 1.18679 13.8321C0.577087 15.3586 0.442952 17.0673 0.68531 18.7944C1.26758 19.6243 2.33 20.3898 3.34516 20.8951" fill="white"/>
<path d="M9.08715 27.0502C10.5215 27.2722 11.715 27.3273 13.5807 27.8724C13.9298 27.9734 14.2255 28.1219 14.4815 28.295C15.611 29.0605 15.89 30.3298 15.9098 30.4339C15.8488 28.0393 14.6218 25.9125 12.7423 24.5835C11.9695 24.0385 11.09 23.6251 10.1282 23.3877C9.80508 23.3066 9.47736 23.2515 9.1466 23.2071C7.90432 23.0356 6.63003 23.0494 5.3969 22.8074C4.05859 22.5472 2.00235 21.5244 1.14876 20.3041L0.994807 20.3362H0.990234C1.007 20.3975 1.02682 20.4572 1.04358 20.5169C1.07407 20.6256 1.10608 20.7343 1.13961 20.8415C1.45361 21.8827 1.86974 22.8978 2.38189 23.8547C3.58911 26.1101 5.3283 28.024 7.50648 29.1141C7.51715 29.1202 7.52935 29.1248 7.54002 29.1309C8.08875 29.402 8.66188 29.627 9.26397 29.7863C10.7135 30.169 12.311 29.6377 13.6097 29.8858C13.7148 29.9057 13.8154 29.9287 13.916 29.9593C14.355 30.094 14.7498 30.339 15.0882 30.7692L15.8427 30.4615C15.611 29.7664 15.1476 29.2642 14.5471 28.8875C13.0945 27.9734 10.8233 27.8035 9.00789 27.5233C8.57652 27.4559 8.17411 27.3533 7.79914 27.2324C5.85113 26.597 4.69421 25.3843 4.69421 25.3843C5.48378 26.0488 6.71539 26.5219 7.89822 26.8128C8.3052 26.9124 8.70761 26.9935 9.0841 27.0517" fill="white"/>
</svg>
