<svg width="102" height="40" viewBox="0 0 102 40" fill="none" xmlns="http://www.w3.org/2000/svg">
<path d="M0.503453 13.6742C-1.0844 20.0181 1.10792 24.3258 6.73759 28.7692C6.88194 25.1765 9.21861 21.6742 10.1749 18.2081C12.1958 10.8145 10.1749 4.87783 3.79645 0L2.8311 1.33032C3.95884 3.39367 4.39189 5.31222 3.63405 7.49321C2.76795 10.0181 1.14401 11.0769 0.494432 13.6742H0.503453Z" fill="url(#paint0_linear_226_4347)"/>
<path style="mix-blend-mode:multiply" opacity="0.43" d="M0.503551 13.6742C1.22535 11.095 2.76821 10.0181 3.64339 7.49321C4.50956 4.96833 5.62835 1.9457 3.79678 0L4.89753 0.886878C6.16068 2.1267 6.4494 6.29864 5.61933 9.41176C4.29302 14.3982 -0.940055 19.0045 6.79226 28.7964C6.79226 28.7873 6.76519 28.7783 6.73812 28.7692C1.6855 25.8009 -1.13855 19.5294 0.503551 13.6742Z" fill="url(#paint1_linear_226_4347)"/>
<path d="M9.38102 23.095C12.6469 23.9004 15.0197 26.7239 15.1009 30.0633L14.2889 30.3981C12.9266 28.6515 10.2561 29.8823 8.20817 29.3393C3.84157 28.1809 0.738035 23.0045 0.151611 19.3936C0.602706 20.914 3.14688 22.2262 4.68963 22.5248C6.23237 22.8235 7.84729 22.7239 9.372 23.095H9.38102Z" fill="url(#paint2_linear_226_4347)"/>
<path style="mix-blend-mode:multiply" d="M15.1009 30.0543L14.289 30.3891C12.9447 28.6878 10.3283 29.7828 8.49689 29.3846C4.60845 28.543 1.18915 24.1448 0.169678 19.5656C0.65686 20.4163 2.02819 24.2172 5.65499 26.2443C9.363 28.3258 13.91 26.6425 15.1009 30.0543Z" fill="url(#paint3_linear_226_4347)"/>
<path d="M22.3274 10.6154C23.9604 10.6154 25.458 11.3665 26.8023 12.5339L27.9391 11.1583C26.7211 9.93662 24.6822 8.85065 22.3455 8.85065C19.1066 8.85065 16.8872 10.7421 16.8872 13.6289C16.8872 16.8235 19.3231 17.7556 21.8042 18.4344C23.8702 19.0045 25.6836 19.6832 25.6836 21.7556C25.6836 24.4072 23.798 24.9502 22.0568 24.9502C20.0088 24.9502 18.1774 24.0181 17.3744 23.466L16.5173 25.1493C17.221 25.7194 19.5216 26.733 22.0027 26.733C25.6295 26.733 27.8037 24.914 27.8037 21.6742C27.8037 18.4344 25.3678 17.4932 22.986 16.7421C20.7576 16.0724 18.9984 15.466 18.9984 13.4208C18.9984 11.2398 20.8569 10.6154 22.3094 10.6154H22.3274Z" fill="#0086CD"/>
<path d="M40.3899 13.5204H38.3959V22.0905C38.3959 23.5928 36.7899 25.2036 34.9764 25.2036C32.6937 25.2036 32.3057 23.7195 32.3057 21.7738V13.5204H30.2847V22.353C30.2847 25.3394 31.6832 26.7964 34.4531 26.7964C36.005 26.7964 37.5568 26.1448 38.5132 24.6697H38.5674L38.7749 26.4344H40.5613L40.3809 24.543V13.5385L40.3899 13.5204Z" fill="#0086CD"/>
<path d="M45.568 15.3846L45.3334 13.5113H43.6011L43.7545 15.276V26.4162H45.7484V18.19C45.8296 16.4524 46.8853 14.9411 48.5454 14.9411C49.195 14.9411 49.7905 15.2036 50.2326 15.4389L50.8552 13.647C50.368 13.3393 49.6101 13.1583 48.8071 13.1583C47.3274 13.1583 46.1905 13.9366 45.568 15.3936V15.3846Z" fill="#0086CD"/>
<path d="M59.408 23.8733C59.2546 23.9638 59.0471 24.0814 58.7944 24.2262C58.5508 24.371 58.2801 24.5068 57.9824 24.6244C57.6847 24.7511 57.3689 24.8597 57.026 24.9502C56.4396 25.1131 55.9162 25.1403 55.4381 24.9683C55.2305 24.8959 55.0591 24.7783 54.9147 24.6063C54.7614 24.4344 54.6441 24.19 54.5448 23.8914C54.4456 23.5837 54.4005 23.1855 54.4005 22.7059V15.1584H58.4967V13.2489H54.4005C54.4005 12.905 54.3734 12.552 54.3373 12.2172C54.2922 11.8461 54.211 11.4751 54.0756 11.1041C53.9493 10.7421 53.7779 10.3982 53.5704 10.0724C53.3538 9.74659 53.0741 9.44795 52.7223 9.19455L52.5599 9.0769L51.3599 10.2353L51.5223 10.4072C51.8381 10.7421 52.0817 11.1493 52.2441 11.6199C52.4065 12.0995 52.4877 12.6697 52.4877 13.3303V22.7059C52.4877 23.4841 52.5779 24.1538 52.7584 24.6878C52.9478 25.2308 53.1914 25.6742 53.4982 25.9909C53.805 26.3258 54.1659 26.5611 54.5809 26.7059C54.9779 26.8416 55.402 26.914 55.835 26.914C56.3042 26.914 56.7734 26.8597 57.2516 26.7421C57.7208 26.6244 58.1629 26.4796 58.5689 26.3167C58.9839 26.1448 59.3358 25.9728 59.6426 25.8009C59.9493 25.6289 60.1749 25.4841 60.3283 25.3665L60.5087 25.2307L59.5974 23.7556L59.3989 23.8642L59.408 23.8733Z" fill="#0086CD"/>
<path d="M64.0539 13.5204H62.0328V26.4254H64.0539V13.5204Z" fill="#0086CD"/>
<path d="M63.0435 8.47961C62.2675 8.47961 61.6991 9.0769 61.6991 9.82803C61.6991 10.6335 62.2404 11.2036 63.0164 11.2036C63.7923 11.2036 64.3878 10.6335 64.3878 9.82803C64.3878 9.0769 63.7923 8.47961 63.0435 8.47961Z" fill="#0086CD"/>
<path d="M75.5838 12.7874C74.8711 12.6245 73.9147 12.534 72.7238 12.534C71.7675 12.534 70.9014 12.715 70.1436 13.0589C69.3767 13.4118 68.7271 13.9005 68.1948 14.5159C67.6716 15.1313 67.2566 15.8643 66.9769 16.6969C66.6972 17.5295 66.5529 18.4344 66.5529 19.4118C66.5529 20.6064 66.7153 21.6381 67.031 22.4797C67.3468 23.3213 67.7798 24.0272 68.3031 24.5702C68.8354 25.1132 69.4669 25.5114 70.1706 25.7648C70.8743 26.0091 71.6051 26.1358 72.3539 26.1358C72.8231 26.1358 73.2471 26.0906 73.626 26.0182C74.005 25.9367 74.3478 25.8281 74.6365 25.7105C74.9342 25.5838 75.1778 25.4661 75.3763 25.3485C75.4214 25.3213 75.4665 25.3032 75.5026 25.2761V25.7557C75.5026 27.1765 75.1868 28.1901 74.5643 28.7602C73.9328 29.3394 72.8862 29.629 71.4517 29.629C70.7841 29.629 70.1165 29.5657 69.4579 29.4299C68.8083 29.2942 68.2851 29.1313 67.9152 28.9503L67.6716 28.8326L67.2656 30.8055L67.437 30.8688C67.9152 31.0408 68.4926 31.2037 69.1602 31.3304C69.8188 31.4661 70.5766 31.5295 71.4066 31.5295C73.4095 31.5295 74.9342 31.077 75.9447 30.1901C76.9641 29.2942 77.4784 27.801 77.4784 25.7376V13.3304L77.334 13.2851C76.8829 13.1313 76.2875 12.9684 75.5748 12.7964L75.5838 12.7874ZM75.4845 14.7874V23.1856C75.1868 23.439 74.7718 23.6652 74.2395 23.8643C73.6711 24.0815 73.0396 24.1901 72.3539 24.1901C71.8938 24.1901 71.4427 24.0996 70.9916 23.9277C70.5586 23.7557 70.1616 23.4842 69.8188 23.1132C69.476 22.7331 69.1873 22.2444 68.9707 21.6381C68.7542 21.0317 68.6369 20.2987 68.6369 19.439C68.6369 18.6969 68.7362 18.0182 68.9166 17.4118C69.1061 16.8055 69.3767 16.2806 69.7286 15.8462C70.0804 15.4118 70.5135 15.077 71.0097 14.8417C71.5059 14.6064 72.0923 14.4887 72.7329 14.4887C73.5268 14.4887 74.1493 14.5249 74.5733 14.6064C74.9252 14.6697 75.2229 14.7331 75.4755 14.8055L75.4845 14.7874Z" fill="#0086CD"/>
<path d="M90.8668 13.9909C89.2068 13.3665 87.4294 13.1583 86.6175 13.1583C82.3231 13.1583 80.1217 15.9366 80.1217 20.5339C80.1217 24.2986 81.6464 26.7873 85.2461 26.7873C87.2671 26.7873 88.3767 25.8009 89.0263 24.8687L89.1075 24.8959L89.2609 26.4253H91.0743L90.8668 24.1629V13.9819V13.9909ZM88.873 22.3257C88.873 23.7828 87.6821 25.285 85.5078 25.285C82.7922 25.285 82.1155 22.8687 82.1155 20.6153C82.1155 17.2941 83.1801 14.7511 86.2837 14.7511C87.3753 14.7511 88.4038 14.9864 88.873 15.1945V22.3348V22.3257Z" fill="#0086CD"/>
<path d="M97.9584 19.0226C96.4878 18.5791 95.2156 18.2171 95.2156 16.6877C95.2156 15.2579 96.4607 14.6877 97.5705 14.6877C98.8968 14.6877 99.9253 15.285 100.782 16.0905L101.946 14.8959C101.017 13.9638 99.4923 13.1583 97.6517 13.1583C95.396 13.1583 93.3299 14.38 93.3299 16.9773C93.3299 19.5746 95.1705 20.199 97.2366 20.6877C98.7434 21.0497 99.9073 21.5203 99.9073 23.0226C99.9073 24.5248 98.7975 25.2307 97.3449 25.2307C95.8923 25.2307 94.575 24.6063 93.8261 24.0905L93.0502 25.5475C93.5915 26.0181 95.2787 26.7963 97.372 26.7963C100.007 26.7963 101.874 25.3936 101.874 22.8506C101.874 20.3076 99.8261 19.6018 97.9675 19.0316L97.9584 19.0226Z" fill="#0086CD"/>
<path d="M50.3225 39.1041C49.5015 39.1041 49.0864 38.6063 49.0864 37.6199V35.629H49.5105V37.5747C49.5105 38.3982 49.7 38.724 50.3225 38.724C50.9451 38.724 51.1345 38.3982 51.1345 37.5747V35.629H51.5496V37.6199C51.5496 38.6063 51.1345 39.1041 50.3225 39.1041Z" fill="#6D696E"/>
<path d="M53.7869 39.0316V37.4208C53.7869 36.9592 53.7147 36.7963 53.3719 36.7963C53.1734 36.7963 52.9117 36.8778 52.5779 37.0226V39.0316H52.1719V36.5158H52.5779V36.7149C52.8666 36.5611 53.1373 36.4525 53.417 36.4525C54.0847 36.4525 54.2019 36.8144 54.2019 37.4298V39.0407H53.7869V39.0316Z" fill="#6D696E"/>
<path d="M56.2228 39.0316V38.8597C56.0694 38.9683 55.7987 39.095 55.4198 39.095C54.9506 39.095 54.6709 38.8868 54.6709 38.3801V38.2896C54.6709 37.6289 55.122 37.5113 55.8258 37.5113H56.2047V37.3303C56.2047 36.8959 56.1145 36.7963 55.6183 36.7963C55.3386 36.7963 55.113 36.8235 54.8423 36.8506V36.5611C54.9145 36.5339 55.2664 36.4525 55.6544 36.4525C56.4935 36.4525 56.6198 36.7601 56.6198 37.3303V39.0316H56.2318H56.2228ZM56.2047 37.828H55.8258C55.2935 37.828 55.0859 37.8914 55.0859 38.2986V38.4253C55.0859 38.7058 55.2574 38.7873 55.51 38.7873C55.8077 38.7873 56.1055 38.6515 56.2047 38.5882V37.8371V37.828Z" fill="#6D696E"/>
<path d="M58.2887 37.9275V37.9818C58.2887 38.4162 58.3518 38.7511 59.0466 38.7511C59.3263 38.7511 59.6872 38.7149 59.9218 38.6787V39.0045C59.7503 39.0497 59.4436 39.104 59.0285 39.104C58.1353 39.104 57.8737 38.7058 57.8737 37.8913V37.7013C57.8737 36.9049 58.2255 36.4615 58.9383 36.4615C59.6511 36.4615 60.021 36.9049 60.021 37.7556V37.9366H58.2887V37.9275ZM59.597 37.5384C59.597 37.2307 59.5338 36.8054 58.9473 36.8054C58.3609 36.8054 58.2977 37.2307 58.2977 37.5384V37.5837H59.597V37.5384Z" fill="#6D696E"/>
<path d="M63.3321 39.0317V37.3575C63.3321 37.0046 63.3321 36.7964 62.9532 36.7964C62.7818 36.7964 62.5382 36.8779 62.3216 37.0046C62.3397 37.1222 62.3397 37.2399 62.3397 37.3485V39.0227H61.9246V37.3485C61.9246 36.9955 61.9246 36.7874 61.5818 36.7874C61.3652 36.7874 61.1126 36.905 60.9321 37.0046V39.0136H60.5261V36.4978H60.9321V36.6969C61.1397 36.543 61.4013 36.4344 61.681 36.4344C61.9607 36.4344 62.1412 36.543 62.2314 36.7059C62.5201 36.5159 62.7818 36.4344 63.0073 36.4344C63.7381 36.4344 63.7382 36.9593 63.7382 37.3485V39.0227H63.3231L63.3321 39.0317Z" fill="#6D696E"/>
<path d="M65.3079 39.104C65.1365 39.104 64.9019 39.0678 64.7485 39.0316V40H64.3425V36.5158H64.7395V36.6877C64.9651 36.5339 65.2267 36.4525 65.4703 36.4525C66.0478 36.4525 66.3816 36.7782 66.3816 37.6289V37.8733C66.3816 38.8416 65.9215 39.104 65.317 39.104M65.9666 37.6289C65.9666 37.0135 65.7771 36.8144 65.3982 36.8144C65.1997 36.8144 65.0373 36.8597 64.7485 37.0045V38.6877C64.9561 38.733 65.1455 38.7601 65.3079 38.7601C65.7049 38.7601 65.9666 38.6154 65.9666 37.8823V37.638V37.6289Z" fill="#6D696E"/>
<path d="M67.2926 37.0316V39.0316H66.8866V36.5158H67.2926V36.7149C67.5272 36.5249 67.834 36.4525 68.1858 36.4525V36.8235C67.861 36.8235 67.4821 36.914 67.2926 37.0407" fill="#6D696E"/>
<path d="M68.7543 37.9275V37.9818C68.7543 38.4162 68.8174 38.7511 69.5122 38.7511C69.7919 38.7511 70.1528 38.7149 70.3873 38.6787V39.0045C70.2159 39.0497 69.9092 39.104 69.4941 39.104C68.6009 39.104 68.3392 38.7058 68.3392 37.8913V37.7013C68.3392 36.9049 68.6911 36.4615 69.4039 36.4615C70.1167 36.4615 70.4866 36.9049 70.4866 37.7556V37.9366H68.7543V37.9275ZM70.0535 37.5384C70.0535 37.2307 69.9904 36.8054 69.4039 36.8054C68.8174 36.8054 68.7543 37.2307 68.7543 37.5384V37.5837H70.0535V37.5384Z" fill="#6D696E"/>
<path d="M71.7224 39.104C71.3705 39.104 70.9825 39.0316 70.9013 39.0045V38.6877C71.0547 38.7058 71.4066 38.7511 71.7134 38.7511C72.1465 38.7511 72.2547 38.6334 72.2547 38.4162C72.2547 38.199 72.1735 38.1176 71.7495 37.9366L71.569 37.8552C71.0818 37.647 70.8833 37.4389 70.8833 37.0859C70.8833 36.6606 71.163 36.4615 71.7946 36.4615C72.1374 36.4615 72.4622 36.5248 72.5525 36.552V36.8597C72.2908 36.8325 71.984 36.8144 71.8126 36.8144C71.4517 36.8144 71.2983 36.8597 71.2983 37.0859C71.2983 37.285 71.3795 37.3665 71.7404 37.5203L71.9209 37.6018C72.5074 37.8642 72.6788 38.018 72.6788 38.4072C72.6788 38.7692 72.4893 39.104 71.7404 39.104" fill="#6D696E"/>
<path d="M74.5283 39.0316V38.8597C74.3749 38.9683 74.1043 39.095 73.7253 39.095C73.2561 39.095 72.9764 38.8868 72.9764 38.3801V38.2896C72.9764 37.6289 73.4276 37.5113 74.1313 37.5113H74.5103V37.3303C74.5103 36.8959 74.42 36.7963 73.9238 36.7963C73.6441 36.7963 73.4185 36.8235 73.1479 36.8506V36.5611C73.2201 36.5339 73.5629 36.4525 73.9599 36.4525C74.799 36.4525 74.9253 36.7601 74.9253 37.3303V39.0316H74.5283ZM74.5103 37.828H74.1313C73.599 37.828 73.3915 37.8914 73.3915 38.2986V38.4253C73.3915 38.7058 73.5629 38.7873 73.8065 38.7873C74.1043 38.7873 74.402 38.6515 74.5103 38.5882V37.8371V37.828Z" fill="#6D696E"/>
<path d="M77.6407 37.8914V39.095H77.1174V35.3213H78.4798C79.3099 35.3213 79.7159 35.7285 79.7159 36.5702C79.7159 37.4118 79.3189 37.8914 78.4798 37.8914H77.6407ZM78.4798 37.3846C78.967 37.3846 79.1746 37.0679 79.1746 36.5611C79.1746 36.0543 78.958 35.819 78.4798 35.819H77.6407V37.3756H78.4798V37.3846Z" fill="#6D696E"/>
<path d="M81.8451 37.7376H80.8977V39.095H80.3744V35.3213H81.7729C82.603 35.3213 83 35.6742 83 36.4978C83 37.0769 82.7924 37.4118 82.3594 37.5928L83.018 39.095H82.4406L81.836 37.7376H81.8451ZM81.7729 35.8281H80.8977V37.2398H81.7819C82.2962 37.2398 82.4676 36.9502 82.4676 36.5159C82.4676 36.0453 82.2421 35.8281 81.7819 35.8281" fill="#6D696E"/>
<path d="M83.541 37.2308C83.541 35.982 83.8749 35.267 85.0388 35.267C86.2027 35.267 86.5365 35.982 86.5365 37.2308C86.5365 38.4797 86.2027 39.1584 85.0388 39.1584C83.8749 39.1584 83.541 38.4978 83.541 37.2308ZM85.9951 37.2308C85.9951 36.2987 85.8147 35.7738 85.0388 35.7738C84.2628 35.7738 84.0824 36.2897 84.0824 37.2308C84.0824 38.172 84.2538 38.6426 85.0388 38.6426C85.8237 38.6426 85.9951 38.1992 85.9951 37.2308Z" fill="#6D696E"/>
<path d="M87.2491 35.3213H88.1334L89.0988 38.3439L90.0732 35.3213H90.9484V39.095H90.4251V35.9638H90.3349L89.3785 38.9503H88.8191L87.8537 35.9638H87.7725V39.095H87.2491V35.3213Z" fill="#6D696E"/>
<path d="M92.3556 35.3213H91.8323V39.095H92.3556V35.3213Z" fill="#6D696E"/>
<path d="M94.7013 37.1493H95.7479V39.0226C95.7479 39.0226 94.981 39.1493 94.5208 39.1493C93.375 39.1493 93.0502 38.4435 93.0502 37.2036C93.0502 35.9638 93.393 35.2579 94.5028 35.2579C95.0712 35.2579 95.7479 35.4118 95.7479 35.4118L95.7299 35.8733C95.7299 35.8733 95.0712 35.7738 94.575 35.7738C93.781 35.7738 93.5915 36.1901 93.5915 37.2036C93.5915 38.2172 93.763 38.6426 94.566 38.6426C94.8547 38.6426 95.2246 38.5792 95.2426 38.5792V37.6199H94.7193V37.1493H94.7013Z" fill="#ADC655"/>
<path d="M97.1641 35.3213H98.2378L99.1942 39.086H98.6619L98.4183 38.2444H96.9566L96.722 39.095H96.1987L97.1641 35.3213ZM97.0739 37.7466H98.319L97.8318 35.819H97.5702L97.0739 37.7466Z" fill="#ADC655"/>
<path d="M101.892 35.8643C101.892 35.8643 101.134 35.7738 100.818 35.7738C100.331 35.7738 100.078 35.9367 100.078 36.2987C100.078 36.7059 100.304 36.7873 100.935 36.9412C101.702 37.1403 102 37.3484 102 38.0091C102 38.8054 101.513 39.1493 100.755 39.1493C100.349 39.1493 99.609 39.0226 99.609 39.0226L99.6632 38.543C99.6632 38.543 100.358 38.6335 100.746 38.6335C101.233 38.6335 101.468 38.4616 101.468 38.0181C101.468 37.6561 101.278 37.5475 100.692 37.4118C99.8978 37.2308 99.5369 37.0045 99.5369 36.3077C99.5369 35.6109 100.024 35.2579 100.8 35.2579C101.215 35.2579 101.919 35.3846 101.919 35.3846L101.874 35.8643H101.892Z" fill="#ADC655"/>
<defs>
<linearGradient id="paint0_linear_226_4347" x1="1.83596" y1="27.2162" x2="7.69485" y2="6.13516" gradientUnits="userSpaceOnUse">
<stop offset="0.24" stop-color="#312783"/>
<stop offset="1" stop-color="#5DC5F0"/>
</linearGradient>
<linearGradient id="paint1_linear_226_4347" x1="7.0838" y1="14.6616" x2="2.44557" y2="13.9627" gradientUnits="userSpaceOnUse">
<stop offset="0.02" stop-color="#39215E"/>
<stop offset="1" stop-color="#39215E"/>
</linearGradient>
<linearGradient id="paint2_linear_226_4347" x1="11.4663" y1="22.6665" x2="3.41256" y2="27.2983" gradientUnits="userSpaceOnUse">
<stop stop-color="#95C11F"/>
<stop offset="1" stop-color="#009597"/>
</linearGradient>
<linearGradient id="paint3_linear_226_4347" x1="10.8114" y1="23.1396" x2="3.47771" y2="27.3572" gradientUnits="userSpaceOnUse">
<stop stop-color="#47B48D"/>
<stop offset="0.95" stop-color="#47B48D"/>
</linearGradient>
</defs>
</svg>
