<svg width="133" height="52" viewBox="0 0 133 52" fill="none" xmlns="http://www.w3.org/2000/svg">
<path d="M29.1133 13.8005C31.2426 13.8005 33.1954 14.7769 34.9482 16.2946L36.4304 14.5063C34.8423 12.9181 32.1837 11.5063 29.1368 11.5063C24.9136 11.5063 22.0197 13.9652 22.0197 17.7181C22.0197 21.8711 25.1959 23.0828 28.431 23.9652C31.1249 24.7063 33.4895 25.5887 33.4895 28.2828C33.4895 31.7299 31.0308 32.4358 28.7604 32.4358C26.09 32.4358 23.7019 31.224 22.6549 30.5063L21.5374 32.6946C22.4549 33.4358 25.4547 34.7534 28.6898 34.7534C33.4189 34.7534 36.254 32.3887 36.254 28.1769C36.254 23.9652 33.0777 22.7416 29.9721 21.7652C27.0664 20.8946 24.7724 20.1063 24.7724 17.4475C24.7724 14.6122 27.1958 13.8005 29.0898 13.8005H29.1133Z" fill="white"/>
<path d="M52.6655 17.5771H50.0655V28.7183C50.0655 30.6713 47.9714 32.7654 45.6067 32.7654C42.6302 32.7654 42.1243 30.836 42.1243 28.3066V17.5771H39.489V29.0595C39.489 32.9419 41.3125 34.836 44.9243 34.836C46.9478 34.836 48.9714 33.9889 50.2184 32.0713H50.289L50.5596 34.3654H52.889L52.6537 31.9066V17.6007L52.6655 17.5771Z" fill="white"/>
<path d="M59.4172 20.0006L59.1114 17.5653H56.8525L57.0525 19.8594V34.3417H59.6525V23.6476C59.7584 21.3888 61.1349 19.4241 63.2996 19.4241C64.1467 19.4241 64.9231 19.7653 65.4996 20.0712L66.3114 17.7417C65.6761 17.3417 64.6878 17.1064 63.6408 17.1064C61.7114 17.1064 60.229 18.1182 59.4172 20.0123V20.0006Z" fill="white"/>
<path d="M77.4636 31.0356C77.2636 31.1532 76.993 31.3062 76.6636 31.4944C76.346 31.6826 75.993 31.8591 75.6048 32.0121C75.2165 32.1768 74.8048 32.3179 74.3577 32.4356C73.593 32.6474 72.9107 32.6826 72.2871 32.4591C72.0165 32.365 71.793 32.2121 71.6048 31.9885C71.4048 31.765 71.2518 31.4474 71.1224 31.0591C70.993 30.6591 70.9342 30.1415 70.9342 29.5179V19.7062H76.2754V17.2238H70.9342C70.9342 16.7768 70.8989 16.3179 70.8518 15.8826C70.793 15.4003 70.6871 14.9179 70.5107 14.4356C70.346 13.965 70.1224 13.5179 69.8518 13.0944C69.5695 12.6709 69.2048 12.2826 68.746 11.9532L68.5342 11.8003L66.9695 13.3062L67.1812 13.5297C67.593 13.965 67.9107 14.4944 68.1224 15.1062C68.3342 15.7297 68.4401 16.4709 68.4401 17.3297V29.5179C68.4401 30.5297 68.5577 31.4003 68.793 32.0944C69.0401 32.8003 69.3577 33.3768 69.7577 33.7885C70.1577 34.2238 70.6283 34.5297 71.1695 34.7179C71.6871 34.8944 72.2401 34.9885 72.8048 34.9885C73.4165 34.9885 74.0283 34.9179 74.6518 34.765C75.2636 34.6121 75.8401 34.4238 76.3695 34.2121C76.9107 33.9885 77.3695 33.765 77.7695 33.5415C78.1695 33.3179 78.4636 33.1297 78.6636 32.9768L78.8989 32.8003L77.7107 30.8826L77.4518 31.0238L77.4636 31.0356Z" fill="white"/>
<path d="M83.5215 17.5771H80.8862V34.3536H83.5215V17.5771Z" fill="white"/>
<path d="M82.2039 11.0239C81.1921 11.0239 80.4509 11.8004 80.4509 12.7769C80.4509 13.8239 81.1568 14.5651 82.1686 14.5651C83.1803 14.5651 83.9568 13.8239 83.9568 12.7769C83.9568 11.8004 83.1803 11.0239 82.2039 11.0239Z" fill="white"/>
<path d="M98.5554 16.6238C97.6261 16.4121 96.3791 16.2944 94.8263 16.2944C93.5793 16.2944 92.45 16.5297 91.4618 16.9768C90.4619 17.4356 89.6149 18.0709 88.9208 18.8709C88.2385 19.6709 87.6974 20.6238 87.3327 21.7062C86.968 22.7886 86.7798 23.965 86.7798 25.2356C86.7798 26.7886 86.9915 28.1297 87.4033 29.2238C87.815 30.318 88.3797 31.2356 89.062 31.9415C89.756 32.6474 90.5795 33.165 91.4971 33.4944C92.4147 33.8121 93.3676 33.9768 94.344 33.9768C94.9557 33.9768 95.5086 33.918 96.0027 33.8238C96.4968 33.718 96.9438 33.5768 97.3202 33.4238C97.7084 33.2591 98.0261 33.1062 98.2849 32.9533C98.3437 32.918 98.4025 32.8944 98.4496 32.8591V33.4827C98.4496 35.3297 98.0378 36.6474 97.2261 37.3885C96.4026 38.1415 95.038 38.518 93.1676 38.518C92.297 38.518 91.4265 38.4356 90.5678 38.2591C89.7208 38.0827 89.0385 37.8709 88.5561 37.6356L88.2385 37.4827L87.7091 40.0474L87.9326 40.1297C88.5561 40.3533 89.309 40.565 90.1796 40.7297C91.0383 40.9062 92.0265 40.9886 93.1088 40.9886C95.7203 40.9886 97.7084 40.4003 99.026 39.2474C100.355 38.0827 101.026 36.1415 101.026 33.4591V17.3297L100.838 17.2709C100.249 17.0709 99.473 16.8591 98.5437 16.6356L98.5554 16.6238ZM98.426 19.2238V30.1415C98.0378 30.4709 97.4967 30.765 96.8026 31.0238C96.0615 31.3062 95.238 31.4474 94.344 31.4474C93.744 31.4474 93.1558 31.3297 92.5676 31.1062C92.003 30.8827 91.4853 30.5297 91.0383 30.0474C90.5913 29.5533 90.2148 28.918 89.9325 28.1297C89.6502 27.3415 89.4972 26.3885 89.4972 25.2709C89.4972 24.3062 89.6266 23.4238 89.8619 22.6356C90.109 21.8474 90.4619 21.165 90.9207 20.6003C91.3795 20.0356 91.9441 19.6003 92.5911 19.2944C93.2382 18.9886 94.0028 18.8356 94.838 18.8356C95.8733 18.8356 96.685 18.8827 97.2379 18.9885C97.6967 19.0709 98.0849 19.1533 98.4143 19.2474L98.426 19.2238Z" fill="white"/>
<path d="M118.483 18.1888C116.319 17.377 114.001 17.1064 112.943 17.1064C107.343 17.1064 104.473 20.7182 104.473 26.6947C104.473 31.5888 106.461 34.8241 111.155 34.8241C113.79 34.8241 115.237 33.5417 116.084 32.33L116.189 32.3653L116.389 34.3535H118.754L118.483 31.4123V18.177V18.1888ZM115.884 29.0241C115.884 30.9182 114.331 32.8712 111.496 32.8712C107.955 32.8712 107.072 29.73 107.072 26.8006C107.072 22.4829 108.461 19.177 112.507 19.177C113.931 19.177 115.272 19.4829 115.884 19.7535V29.0359V29.0241Z" fill="white"/>
<path d="M127.73 24.73C125.813 24.1535 124.154 23.6829 124.154 21.6947C124.154 19.8359 125.777 19.0947 127.224 19.0947C128.954 19.0947 130.295 19.8712 131.413 20.9182L132.93 19.3653C131.719 18.1535 129.73 17.1064 127.33 17.1064C124.389 17.1064 121.695 18.6947 121.695 22.0712C121.695 25.4476 124.095 26.2594 126.789 26.8947C128.754 27.3653 130.271 27.977 130.271 29.93C130.271 31.8829 128.824 32.8006 126.93 32.8006C125.036 32.8006 123.319 31.9888 122.342 31.3182L121.33 33.2123C122.036 33.8241 124.236 34.8359 126.966 34.8359C130.401 34.8359 132.836 33.0123 132.836 29.7064C132.836 26.4006 130.166 25.4829 127.742 24.7417L127.73 24.73Z" fill="white"/>
<path d="M65.6166 50.836C64.5461 50.836 64.0049 50.1889 64.0049 48.9066V46.3184H64.5578V48.8478C64.5578 49.9184 64.8049 50.3419 65.6166 50.3419C66.4284 50.3419 66.6755 49.9184 66.6755 48.8478V46.3184H67.2166V48.9066C67.2166 50.1889 66.6755 50.836 65.6166 50.836Z" fill="white"/>
<path d="M70.134 50.7416V48.6475C70.134 48.0475 70.0398 47.8357 69.5928 47.8357C69.334 47.8357 68.9928 47.9416 68.5575 48.1298V50.7416H68.0281V47.471H68.5575V47.7298C68.934 47.5298 69.2869 47.3887 69.6516 47.3887C70.5222 47.3887 70.6751 47.8593 70.6751 48.6593V50.7534H70.134V50.7416Z" fill="white"/>
<path d="M73.3102 50.7416V50.5181C73.1102 50.6593 72.7572 50.824 72.2631 50.824C71.6513 50.824 71.2866 50.5534 71.2866 49.8946V49.7769C71.2866 48.9181 71.8749 48.7651 72.7925 48.7651H73.2866V48.5298C73.2866 47.9651 73.169 47.8357 72.5219 47.8357C72.1572 47.8357 71.8631 47.871 71.5102 47.9063V47.5299C71.6043 47.4946 72.0631 47.3887 72.569 47.3887C73.6631 47.3887 73.8278 47.7887 73.8278 48.5298V50.7416H73.3219H73.3102ZM73.2866 49.1769H72.7925C72.0984 49.1769 71.8278 49.2593 71.8278 49.7887V49.9534C71.8278 50.3181 72.0513 50.424 72.3807 50.424C72.769 50.424 73.1572 50.2475 73.2866 50.1651V49.1887V49.1769Z" fill="white"/>
<path d="M76.0041 49.3068V49.3773C76.0041 49.9421 76.0864 50.3773 76.9923 50.3773C77.357 50.3773 77.8276 50.3303 78.1335 50.2832V50.7068C77.9099 50.7656 77.5099 50.8362 76.9688 50.8362C75.8041 50.8362 75.4629 50.3185 75.4629 49.2597V49.0126C75.4629 47.9773 75.9217 47.4009 76.8511 47.4009C77.7805 47.4009 78.2629 47.9773 78.2629 49.0832V49.3185H76.0041V49.3068ZM77.7099 48.8009C77.7099 48.4009 77.6276 47.8479 76.8629 47.8479C76.0982 47.8479 76.0158 48.4009 76.0158 48.8009V48.8597H77.7099V48.8009Z" fill="white"/>
<path d="M82.5802 50.7417V48.5652C82.5802 48.1064 82.5802 47.8358 82.0861 47.8358C81.8626 47.8358 81.5449 47.9417 81.2626 48.1064C81.2861 48.2594 81.2861 48.4123 81.2861 48.5535V50.7299H80.7449V48.5535C80.7449 48.0946 80.7449 47.8241 80.2979 47.8241C80.0155 47.8241 79.6861 47.977 79.4508 48.1064V50.7182H78.9214V47.4476H79.4508V47.7064C79.7214 47.5064 80.0626 47.3652 80.4273 47.3652C80.792 47.3652 81.0273 47.5064 81.1449 47.7182C81.5214 47.4711 81.8626 47.3652 82.1567 47.3652C83.1096 47.3652 83.1096 48.0476 83.1096 48.5535V50.7299H82.5685L82.5802 50.7417Z" fill="white"/>
<path d="M85.1563 50.8357C84.9328 50.8357 84.6269 50.7887 84.4269 50.7416V52.0004H83.8975V47.471H84.4151V47.6946C84.7092 47.4946 85.0504 47.3887 85.368 47.3887C86.121 47.3887 86.5563 47.8122 86.5563 48.9181V49.2357C86.5563 50.4946 85.9563 50.8357 85.1681 50.8357M86.0151 48.9181C86.0151 48.1181 85.768 47.8593 85.2739 47.8593C85.0151 47.8593 84.8033 47.9181 84.4269 48.1063V50.2946C84.6975 50.3534 84.9445 50.3887 85.1563 50.3887C85.6739 50.3887 86.0151 50.2004 86.0151 49.2475V48.9298V48.9181Z" fill="white"/>
<path d="M87.7443 48.1416V50.7416H87.2148V47.471H87.7443V47.7298C88.0501 47.4828 88.4501 47.3887 88.909 47.3887V47.871C88.4854 47.871 87.9913 47.9887 87.7443 48.1534" fill="white"/>
<path d="M89.6501 49.3068V49.3773C89.6501 49.9421 89.7324 50.3773 90.6383 50.3773C91.003 50.3773 91.4736 50.3303 91.7795 50.2832V50.7068C91.5559 50.7656 91.1559 50.8362 90.6148 50.8362C89.4501 50.8362 89.1089 50.3185 89.1089 49.2597V49.0126C89.1089 47.9773 89.5677 47.4009 90.4971 47.4009C91.4265 47.4009 91.9089 47.9773 91.9089 49.0832V49.3185H89.6501V49.3068ZM91.3442 48.8009C91.3442 48.4009 91.2618 47.8479 90.4971 47.8479C89.7324 47.8479 89.6501 48.4009 89.6501 48.8009V48.8597H91.3442V48.8009Z" fill="white"/>
<path d="M93.5204 50.8362C93.0616 50.8362 92.5557 50.7421 92.4498 50.7068V50.295C92.6498 50.3185 93.1086 50.3773 93.5086 50.3773C94.0733 50.3773 94.2145 50.2244 94.2145 49.9421C94.2145 49.6597 94.1086 49.5538 93.5557 49.3185L93.3204 49.2126C92.6851 48.9421 92.4263 48.6715 92.4263 48.2126C92.4263 47.6597 92.791 47.4009 93.6145 47.4009C94.0616 47.4009 94.4851 47.4832 94.6027 47.5185V47.9185C94.2616 47.8832 93.8616 47.8597 93.638 47.8597C93.1674 47.8597 92.9674 47.9185 92.9674 48.2126C92.9674 48.4715 93.0733 48.5773 93.5439 48.7773L93.7792 48.8832C94.5439 49.2244 94.7674 49.4244 94.7674 49.9303C94.7674 50.4009 94.5204 50.8362 93.5439 50.8362" fill="white"/>
<path d="M97.1793 50.7416V50.5181C96.9793 50.6593 96.6264 50.824 96.1322 50.824C95.5205 50.824 95.1558 50.5534 95.1558 49.8946V49.7769C95.1558 48.9181 95.744 48.7651 96.6616 48.7651H97.1558V48.5298C97.1558 47.9651 97.0381 47.8357 96.3911 47.8357C96.0264 47.8357 95.7322 47.871 95.3793 47.9063V47.5299C95.4734 47.4946 95.9205 47.3887 96.4381 47.3887C97.5322 47.3887 97.6969 47.7887 97.6969 48.5298V50.7416H97.1793ZM97.1558 49.1769H96.6616C95.9675 49.1769 95.6969 49.2593 95.6969 49.7887V49.9534C95.6969 50.3181 95.9205 50.424 96.2381 50.424C96.6263 50.424 97.0146 50.2475 97.1558 50.1651V49.1887V49.1769Z" fill="white"/>
<path d="M101.238 49.2596V50.8243H100.555V45.9185H102.332C103.414 45.9185 103.943 46.4479 103.943 47.542C103.943 48.6361 103.426 49.2596 102.332 49.2596H101.238ZM102.332 48.6008C102.967 48.6008 103.238 48.189 103.238 47.5302C103.238 46.8714 102.955 46.5655 102.332 46.5655H101.238V48.589H102.332V48.6008Z" fill="white"/>
<path d="M106.72 49.0591H105.484V50.8239H104.802V45.918H106.626C107.708 45.918 108.226 46.3768 108.226 47.4474C108.226 48.2003 107.955 48.6356 107.39 48.8709L108.249 50.8239H107.496L106.708 49.0591H106.72ZM106.626 46.5768H105.484V48.4121H106.637C107.308 48.4121 107.531 48.0356 107.531 47.4709C107.531 46.8591 107.237 46.5768 106.637 46.5768" fill="white"/>
<path d="M108.931 48.4006C108.931 46.7771 109.366 45.8477 110.884 45.8477C112.402 45.8477 112.837 46.7771 112.837 48.4006C112.837 50.0241 112.402 50.9065 110.884 50.9065C109.366 50.9065 108.931 50.0477 108.931 48.4006ZM112.131 48.4006C112.131 47.1888 111.896 46.5065 110.884 46.5065C109.872 46.5065 109.637 47.1771 109.637 48.4006C109.637 49.6241 109.861 50.2359 110.884 50.2359C111.908 50.2359 112.131 49.6594 112.131 48.4006Z" fill="white"/>
<path d="M113.766 45.918H114.919L116.178 49.8474L117.448 45.918H118.59V50.8239H117.907V46.7533H117.79L116.543 50.6356H115.813L114.554 46.7533H114.448V50.8239H113.766V45.918Z" fill="white"/>
<path d="M120.425 45.918H119.742V50.8239H120.425V45.918Z" fill="white"/>
<path d="M123.483 48.2948H124.848V50.7301C124.848 50.7301 123.848 50.8948 123.248 50.8948C121.754 50.8948 121.33 49.9771 121.33 48.3654C121.33 46.7536 121.777 45.8359 123.224 45.8359C123.966 45.8359 124.848 46.0359 124.848 46.0359L124.824 46.6359C124.824 46.6359 123.966 46.5065 123.319 46.5065C122.283 46.5065 122.036 47.0477 122.036 48.3654C122.036 49.683 122.26 50.2359 123.307 50.2359C123.683 50.2359 124.166 50.1536 124.189 50.1536V48.9065H123.507V48.2948H123.483Z" fill="white"/>
<path d="M126.695 45.9185H128.095L129.342 50.8126H128.648L128.33 49.7185H126.424L126.118 50.8243H125.436L126.695 45.9185ZM126.577 49.0714H128.201L127.565 46.5655H127.224L126.577 49.0714Z" fill="white"/>
<path d="M132.859 46.6242C132.859 46.6242 131.871 46.5065 131.459 46.5065C130.824 46.5065 130.494 46.7183 130.494 47.1889C130.494 47.7183 130.788 47.8242 131.612 48.0242C132.612 48.283 133 48.5536 133 49.4124C133 50.4477 132.365 50.8948 131.377 50.8948C130.847 50.8948 129.882 50.7301 129.882 50.7301L129.953 50.1065C129.953 50.1065 130.859 50.2242 131.365 50.2242C132 50.2242 132.306 50.0006 132.306 49.4242C132.306 48.9536 132.059 48.8124 131.294 48.6359C130.259 48.4006 129.788 48.1065 129.788 47.2006C129.788 46.2948 130.424 45.8359 131.435 45.8359C131.977 45.8359 132.894 46.0006 132.894 46.0006L132.835 46.6242H132.859Z" fill="white"/>
<path d="M3.61477 27.1641C3.4975 26.5232 3.12385 24.2839 3.30869 22.3811C3.72408 18.1136 7.74883 10.3488 7.74883 7.34922C7.74883 4.34961 6.89419 2.71546 6.89419 2.71546C6.89419 2.71546 8.67502 4.58051 8.49614 7.49452C8.31528 10.4085 7.1327 13.0319 6.59408 14.6761C6.03558 16.3819 4.58071 19.5606 4.25475 22.4229C3.98445 24.7915 4.44158 27.5204 4.44357 27.5324C4.73574 27.6458 5.01796 27.7413 5.27634 27.813C7.27381 28.3544 9.40246 28.3644 11.3761 29.0013C11.4615 29.0292 11.545 29.065 11.6305 29.0949C12.348 27.3652 13.0635 25.6474 13.5306 23.9396C16.1879 14.2222 13.5306 6.4157 5.1392 0.000488281L3.87116 1.75208C5.35982 4.46904 5.92229 6.98099 4.93051 9.85718C3.78967 13.1792 2.10822 14.7159 0.802413 17.9822C0.00740138 19.9667 -0.167501 22.188 0.148516 24.4332C0.907753 25.512 2.29306 26.5073 3.61676 27.1641" fill="white"/>
<path d="M11.1039 35.1659C12.9742 35.4545 14.5304 35.5262 16.9631 36.2348C17.4183 36.3661 17.8039 36.5592 18.1378 36.7841C19.6105 37.7794 19.9742 39.4294 20.0001 39.5648C19.9206 36.4517 18.3206 33.687 15.87 31.9593C14.8623 31.2507 13.7155 30.7133 12.4614 30.4048C12.04 30.2993 11.6127 30.2276 11.1814 30.1699C9.56158 29.947 7.9 29.9649 6.29209 29.6504C4.54704 29.312 1.86586 27.9824 0.752846 26.396L0.552105 26.4378H0.546143C0.568005 26.5174 0.593843 26.595 0.615706 26.6727C0.655457 26.814 0.697195 26.9553 0.740921 27.0946C1.15035 28.4481 1.69295 29.7678 2.36076 31.0118C3.93488 33.9438 6.20265 36.4318 9.04283 37.849C9.05675 37.857 9.07265 37.863 9.08656 37.8709C9.80207 38.2232 10.5494 38.5158 11.3345 38.7228C13.2246 39.2204 15.3075 38.5298 17.0009 38.8522C17.138 38.8781 17.2692 38.9079 17.4004 38.9478C17.9728 39.1229 18.4876 39.4414 18.9288 40.0007L19.9126 39.6006C19.6105 38.697 19.0063 38.0441 18.2232 37.5544C16.3291 36.3661 13.3677 36.1452 11.0006 35.781C10.4381 35.6934 9.91337 35.56 9.42444 35.4028C6.88438 34.5767 5.37584 33.0003 5.37584 33.0003C6.40538 33.8642 8.01131 34.4792 9.55363 34.8574C10.0843 34.9868 10.609 35.0923 11.0999 35.1679" fill="white"/>
</svg>
