<svg width="64" height="40" viewBox="0 0 64 40" fill="none" xmlns="http://www.w3.org/2000/svg">
<path d="M30.906 25.8659C29.2252 26.8533 26.8087 27.493 24.1493 27.493C18.7938 27.493 15.4908 24.529 15.4908 18.3314C15.4908 11.4142 20.079 9.0899 24.1493 9.0899C26.2273 9.0899 28.8884 9.65304 30.9711 11.9742L29.2268 13.177C27.8795 11.7891 26.2908 10.9085 24.1175 10.9085C20.2649 10.9085 17.9692 13.6588 17.9692 18.1463C17.9692 22.9545 19.9281 25.759 24.3637 25.759C25.954 25.759 27.7588 25.2772 28.4944 24.8241V19.5342H23.8744V17.7188H30.9092V25.8674L30.906 25.8659Z" fill="white"/>
<path d="M43.0723 14.005V8.60815H45.1218V24.7699L45.3331 27.174H43.4981L43.3122 25.5723L43.2058 25.5436C42.17 27.0129 40.7052 27.5473 39.296 27.5473C35.4132 27.5473 34.1089 24.4764 34.1089 20.9237C34.1089 16.4362 36.3442 13.5232 40.3334 13.5232C41.3978 13.5232 42.2224 13.7099 43.0723 14.005ZM43.0723 15.7678C42.4623 15.4471 41.4773 15.1249 40.254 15.1249C37.353 15.1249 36.1567 17.5561 36.1567 20.6812C36.1567 23.4331 36.9018 25.944 39.6153 25.944C41.795 25.944 43.0707 24.4206 43.0707 23.0853V15.7678H43.0723Z" fill="white"/>
<path d="M55.7868 27.493C51.2367 27.493 48.4994 24.4221 48.4994 18.3314C48.4994 11.4669 52.4362 9.0899 56.0537 9.0899C59.884 9.0899 63.2092 11.5211 63.2092 18.3314C63.2092 24.4476 60.3368 27.493 55.7868 27.493ZM55.9996 25.7031C59.8538 25.7031 61.0533 22.0436 61.0533 18.4111C61.0533 15.2588 60.0175 10.9069 55.971 10.9069C51.9246 10.9069 50.6537 14.6191 50.6537 18.2516C50.6537 21.884 51.6101 25.7031 55.9996 25.7031Z" fill="white"/>
<path d="M8.07339 39.0349C7.19642 39.0349 6.75 38.5036 6.75 37.4444V35.3083H7.20119V37.3949C7.20119 38.2803 7.40772 38.6249 8.07339 38.6249C8.73905 38.6249 8.94558 38.2755 8.94558 37.3949V35.3083H9.39201V37.4444C9.39201 38.502 8.94558 39.0349 8.07339 39.0349Z" fill="white"/>
<path d="M11.802 38.9646V37.2369C11.802 36.744 11.7242 36.5669 11.3508 36.5669C11.1395 36.5669 10.8599 36.6499 10.5024 36.8078V38.963H10.0656V36.2559H10.5024V36.468C10.8154 36.3053 11.0998 36.1873 11.4001 36.1873C12.115 36.1873 12.2437 36.5765 12.2437 37.2354V38.963H11.802V38.9646Z" fill="white"/>
<path d="M14.4186 38.9647V38.7828C14.2566 38.8961 13.9627 39.0333 13.5607 39.0333C13.0555 39.0333 12.7568 38.8068 12.7568 38.266V38.167C12.7568 37.454 13.2414 37.3295 13.9976 37.3295H14.3996V37.1333C14.3996 36.6659 14.3058 36.5622 13.7672 36.5622C13.4686 36.5622 13.2287 36.5861 12.9332 36.6212V36.307C13.011 36.2766 13.3844 36.1889 13.8006 36.1889C14.6982 36.1889 14.8396 36.5191 14.8396 37.1333V38.9647H14.4186ZM14.3996 37.6661H13.9976C13.4289 37.6661 13.1985 37.7347 13.1985 38.1686V38.3011C13.1985 38.6057 13.3844 38.6903 13.6497 38.6903C13.969 38.6903 14.2868 38.5483 14.3996 38.4733V37.6661Z" fill="white"/>
<path d="M16.6379 37.7746V37.8288C16.6379 38.2963 16.7063 38.6504 17.4514 38.6504C17.75 38.6504 18.1377 38.6153 18.3919 38.5722V38.9264C18.206 38.9759 17.8771 39.0349 17.4307 39.0349C16.4743 39.0349 16.1947 38.6073 16.1947 37.7299V37.5226C16.1947 36.6707 16.5728 36.1889 17.337 36.1889C18.1011 36.1889 18.4936 36.6659 18.4936 37.5768V37.773H16.6364L16.6379 37.7746ZM18.0408 37.3598C18.0408 37.0296 17.9725 36.5718 17.3449 36.5718C16.7174 36.5718 16.6443 37.0296 16.6443 37.3598V37.4093H18.0408V37.3598Z" fill="white"/>
<path d="M22.0587 38.9647V37.1684C22.0587 36.7887 22.0587 36.5686 21.6567 36.5686C21.4709 36.5686 21.2103 36.6579 20.9752 36.7951C20.9943 36.9227 20.9943 37.0503 20.9943 37.1684V38.9647H20.5526V37.1684C20.5526 36.7887 20.5526 36.5686 20.1856 36.5686C19.9505 36.5686 19.6804 36.6914 19.485 36.8047V38.9663H19.0481V36.2591H19.485V36.4713C19.7058 36.3085 19.9854 36.1905 20.2889 36.1905C20.5923 36.1905 20.7798 36.3038 20.8815 36.4808C21.1944 36.2734 21.4693 36.1905 21.7155 36.1905C22.5003 36.1905 22.5003 36.752 22.5003 37.17V38.9663H22.0587V38.9647Z" fill="white"/>
<path d="M24.1892 39.0349C24.008 39.0349 23.7523 38.9998 23.5855 38.9567V40H23.1486V36.2591H23.5696V36.4409C23.8095 36.2734 24.0938 36.1905 24.3544 36.1905C24.9724 36.1905 25.3298 36.5399 25.3298 37.4508V37.7172C25.3298 38.7605 24.8342 39.0365 24.1876 39.0365L24.1892 39.0349ZM24.8961 37.4492C24.8961 36.7839 24.6896 36.5781 24.2877 36.5781C24.0764 36.5781 23.9048 36.6228 23.587 36.7791V38.585C23.8079 38.6297 24.008 38.6584 24.1907 38.6584C24.6213 38.6584 24.8961 38.5052 24.8961 37.714V37.4476V37.4492Z" fill="white"/>
<path d="M26.3212 36.8143V38.9647H25.8843V36.2575H26.3148V36.4745C26.569 36.2735 26.8979 36.1889 27.276 36.1889V36.5829C26.9233 36.5829 26.5261 36.6818 26.3196 36.8143H26.3212Z" fill="white"/>
<path d="M27.8939 37.7746V37.8288C27.8939 38.2963 27.9622 38.6504 28.7073 38.6504C29.006 38.6504 29.3937 38.6153 29.6479 38.5722V38.9264C29.462 38.9759 29.1331 39.0349 28.6867 39.0349C27.7303 39.0349 27.4507 38.6073 27.4507 37.7299V37.5226C27.4507 36.6707 27.8288 36.1889 28.593 36.1889C29.3571 36.1889 29.7495 36.6659 29.7495 37.5768V37.773H27.8923L27.8939 37.7746ZM29.2952 37.3598C29.2952 37.0296 29.2269 36.5718 28.5993 36.5718C27.9718 36.5718 27.8987 37.0296 27.8987 37.3598V37.4093H29.2952V37.3598Z" fill="white"/>
<path d="M31.0888 39.0349C30.7107 39.0349 30.2944 38.9567 30.2071 38.9264V38.5866C30.3691 38.601 30.7504 38.6552 31.0745 38.6552C31.5352 38.6552 31.6528 38.5276 31.6528 38.2915C31.6528 38.0554 31.5702 37.9772 31.1095 37.7794L30.914 37.6964C30.3945 37.4747 30.1737 37.253 30.1737 36.8637C30.1737 36.4106 30.4724 36.1889 31.1492 36.1889C31.5114 36.1889 31.8657 36.2527 31.9626 36.2878V36.618C31.6782 36.5877 31.3541 36.5686 31.1682 36.5686C30.7758 36.5686 30.6138 36.618 30.6138 36.8637C30.6138 37.0759 30.7027 37.1636 31.084 37.3311L31.2794 37.4141C31.907 37.6948 32.0929 37.8624 32.0929 38.2803C32.0929 38.6696 31.8863 39.0333 31.0872 39.0333L31.0888 39.0349Z" fill="white"/>
<path d="M34.0978 38.9647V38.7828C33.9358 38.8961 33.6419 39.0333 33.2399 39.0333C32.7347 39.0333 32.436 38.8068 32.436 38.266V38.167C32.436 37.454 32.9206 37.3295 33.6768 37.3295H34.0788V37.1333C34.0788 36.6659 33.985 36.5622 33.4464 36.5622C33.1478 36.5622 32.9079 36.5861 32.6124 36.6212V36.307C32.6902 36.2766 33.0636 36.1889 33.4798 36.1889C34.3774 36.1889 34.5188 36.5191 34.5188 37.1333V38.9647H34.0978ZM34.0788 37.6661H33.6768C33.1081 37.6661 32.8777 37.7347 32.8777 38.1686V38.3011C32.8777 38.6057 33.0636 38.6903 33.3289 38.6903C33.6482 38.6903 33.966 38.5483 34.0788 38.4733V37.6661Z" fill="white"/>
<path d="M37.4102 37.7379V39.03H36.8478V34.9764H38.3141C39.2086 34.9764 39.6391 35.4151 39.6391 36.3149C39.6391 37.2146 39.2086 37.7379 38.3141 37.7379H37.4118H37.4102ZM38.3126 37.1955C38.8305 37.1955 39.0624 36.8573 39.0624 36.3149C39.0624 35.7725 38.8305 35.5188 38.3126 35.5188H37.4102V37.1955H38.3126Z" fill="white"/>
<path d="M41.9237 37.5704H40.9069V39.03H40.3429V34.9764H41.849C42.7387 34.9764 43.1692 35.3513 43.1692 36.2447C43.1692 36.8652 42.9484 37.2322 42.4829 37.4172L43.1914 39.03H42.5687L41.9237 37.5704ZM41.849 35.514H40.9069V37.0343H41.8538C42.4019 37.0343 42.5877 36.7233 42.5877 36.2559C42.5877 35.7549 42.3478 35.514 41.849 35.514Z" fill="white"/>
<path d="M43.7444 37.0264C43.7444 35.6832 44.105 34.9127 45.3506 34.9127C46.5961 34.9127 46.9615 35.6784 46.9615 37.0264C46.9615 38.3744 46.6009 39.0939 45.3506 39.0939C44.1003 39.0939 43.7444 38.3808 43.7444 37.0264ZM46.3737 37.0264C46.3737 36.023 46.1814 35.4614 45.3506 35.4614C44.5197 35.4614 44.3258 36.0166 44.3258 37.0264C44.3258 38.0362 44.5133 38.5451 45.3506 38.5451C46.1878 38.5451 46.3737 38.0649 46.3737 37.0264Z" fill="white"/>
<path d="M47.7225 34.9764H48.671L49.7116 38.2244L50.7585 34.9764H51.6943V39.03H51.1303V35.6656H51.0413L50.0087 38.8785H49.4097L48.3723 35.6656H48.2865V39.03H47.7225V34.9764Z" fill="white"/>
<path d="M53.2067 34.9764H52.6427V39.03H53.2067V34.9764Z" fill="white"/>
<path d="M55.7311 36.9387H56.8543V38.9535C56.8543 38.9535 56.0282 39.0939 55.5341 39.0939C54.3013 39.0939 53.9518 38.3345 53.9518 37.0025C53.9518 35.6704 54.3188 34.9111 55.5167 34.9111C56.1283 34.9111 56.8543 35.0738 56.8543 35.0738L56.8305 35.5699C56.8305 35.5699 56.1219 35.4646 55.5913 35.4646C54.7414 35.4646 54.5317 35.9097 54.5317 37.0009C54.5317 38.0921 54.7128 38.5435 55.5723 38.5435C55.8805 38.5435 56.276 38.4797 56.2935 38.4797V37.446H55.7295V36.9371L55.7311 36.9387Z" fill="white"/>
<path d="M58.3717 34.9764H59.5282L60.5513 39.0237H59.981L59.7205 38.1191H58.1508L57.8998 39.03H57.3358L58.3717 34.9764ZM58.2731 37.5751H59.6061L59.0866 35.5013H58.8022L58.2731 37.5751Z" fill="white"/>
<path d="M63.4428 35.5539C63.4428 35.5539 62.6278 35.455 62.291 35.455C61.7667 35.455 61.4998 35.6305 61.4998 36.0214C61.4998 36.4553 61.7381 36.5478 62.4244 36.7169C63.2458 36.9323 63.5714 37.1492 63.5714 37.8623C63.5714 38.7206 63.0488 39.0875 62.2338 39.0875C61.7969 39.0875 61.0057 38.9535 61.0057 38.9535L61.0645 38.4398C61.0645 38.4398 61.8143 38.5387 62.2274 38.5387C62.7517 38.5387 63.0075 38.3584 63.0075 37.8798C63.0075 37.4954 62.8041 37.371 62.1766 37.2258C61.3218 37.0264 60.9326 36.7871 60.9326 36.0341C60.9326 35.2811 61.4553 34.9062 62.2925 34.9062C62.7406 34.9062 63.492 35.0403 63.492 35.0403L63.4444 35.5539H63.4428Z" fill="white"/>
<path d="M2.88941 21.7708C2.79567 21.2571 2.497 19.4624 2.64475 17.9373C2.97679 14.517 6.1939 8.29385 6.1939 5.88977C6.1939 3.48568 5.51076 2.17596 5.51076 2.17596C5.51076 2.17596 6.93424 3.67073 6.79126 6.00622C6.64668 8.34171 5.70141 10.4443 5.27087 11.762C4.82444 13.1291 3.66152 15.6768 3.40097 17.9708C3.18491 19.8692 3.55031 22.0563 3.5519 22.0659C3.78543 22.1568 4.01103 22.2334 4.21756 22.2908C5.81421 22.7247 7.5157 22.7327 9.09328 23.2432C9.1616 23.2655 9.22832 23.2942 9.29664 23.3182C9.87016 21.9319 10.4421 20.5552 10.8154 19.1864C12.9395 11.3983 10.8154 5.14158 4.10794 0L3.09435 1.40384C4.28429 3.5814 4.73389 5.59464 3.94113 7.89982C3.02921 10.5623 1.68517 11.7939 0.641396 14.4117C0.00591617 16.0022 -0.133889 17.7826 0.118714 19.582C0.725598 20.4467 1.83292 21.2443 2.891 21.7708" fill="white"/>
<path d="M8.87558 28.1838C10.3705 28.4151 11.6145 28.4725 13.5591 29.0404C13.9229 29.1457 14.2311 29.3005 14.498 29.4807C15.6752 30.2784 15.9659 31.6009 15.9866 31.7093C15.9231 29.2143 14.6441 26.9985 12.6853 25.6138C11.8798 25.0459 10.9631 24.6151 9.96066 24.3679C9.62386 24.2833 9.28229 24.2259 8.93754 24.1796C7.64275 24.0009 6.31459 24.0153 5.02933 23.7632C3.63446 23.4921 1.4913 22.4264 0.601626 21.155L0.441167 21.1885H0.436401C0.453877 21.2523 0.47453 21.3145 0.492006 21.3767C0.52378 21.49 0.557143 21.6032 0.592094 21.7149C0.919366 22.7997 1.35308 23.8574 1.88689 24.8544C3.14514 27.2043 4.95784 29.1984 7.2281 30.3342C7.23922 30.3406 7.25193 30.3454 7.26305 30.3517C7.83498 30.6341 8.43233 30.8686 9.05987 31.0345C10.5707 31.4333 12.2357 30.8798 13.5893 31.1382C13.6989 31.159 13.8037 31.1829 13.9086 31.2148C14.3661 31.3552 14.7776 31.6104 15.1303 32.0587L15.9167 31.738C15.6752 31.0138 15.1923 30.4905 14.5663 30.0981C13.0523 29.1457 10.6851 28.9686 8.79297 28.6767C8.34336 28.6065 7.92395 28.4996 7.53313 28.3736C5.50277 27.7116 4.29694 26.4481 4.29694 26.4481C5.11989 27.1405 6.40356 27.6334 7.63639 27.9365C8.06058 28.0402 8.47999 28.1247 8.8724 28.1854" fill="white"/>
</svg>
