<svg width="64" height="40" viewBox="0 0 64 40" fill="none" xmlns="http://www.w3.org/2000/svg">
<path d="M31.2934 25.8653C29.5915 26.8529 27.145 27.4926 24.4518 27.4926C19.0282 27.4926 15.684 24.5283 15.684 18.3314C15.684 11.4136 20.3302 9.08905 24.4518 9.08905C26.555 9.08905 29.2512 9.65214 31.3588 11.9738L29.5915 13.1766C28.2286 11.788 26.6189 10.908 24.4176 10.908C20.516 10.908 18.1929 13.6586 18.1929 18.1457C18.1929 22.954 20.1756 25.7577 24.6673 25.7577C26.2785 25.7577 28.1052 25.2757 28.8484 24.8217V19.5327H24.1709V17.7167H31.2934V25.8653Z" fill="#1781C4"/>
<path d="M43.6119 14.0051V8.60706H45.6868V24.7686L45.9009 27.1728H44.043L43.8542 25.5705L43.7457 25.5425C42.6963 27.0107 41.2145 27.5472 39.7861 27.5472C35.8548 27.5472 34.5349 24.4753 34.5349 20.9243C34.5349 16.4358 36.7986 13.5245 40.8369 13.5245C41.9145 13.5245 42.7498 13.7117 43.6104 14.0065M43.6119 15.7695C42.9951 15.4496 41.9978 15.1268 40.7582 15.1268C37.8212 15.1268 36.6098 17.5575 36.6098 20.6825C36.6098 23.4346 37.3634 25.9464 40.1131 25.9464C42.3203 25.9464 43.6119 24.4237 43.6119 23.0882V15.7695Z" fill="#1781C4"/>
<path d="M56.4851 27.4926C51.8789 27.4926 49.1069 24.4221 49.1069 18.3313C49.1069 11.4666 53.0918 9.08899 56.7556 9.08899C60.6349 9.08899 63.9999 11.5197 63.9999 18.3313C63.9999 24.4472 61.0927 27.4926 56.4851 27.4926ZM56.7021 25.7046C60.6052 25.7046 61.8195 22.0445 61.8195 18.4124C61.8195 15.2609 60.7701 10.908 56.6738 10.908C52.5775 10.908 51.2889 14.6196 51.2889 18.2517C51.2889 21.8838 52.2565 25.7031 56.7021 25.7031" fill="#1781C4"/>
<path d="M0.496635 14.3499C-1.25277 20.5129 1.7719 27.1197 7.17619 30.2137C7.32483 26.446 9.74011 22.7402 10.7508 19.0993C12.8911 11.3473 10.7508 5.12379 3.98951 0.00439453L2.96691 1.40327C4.16638 3.57014 4.61674 5.57486 3.82155 7.87144C2.90151 10.5188 1.26358 11.648 0.495148 14.3499H0.496635Z" fill="url(#paint0_linear_226_4314)"/>
<path style="mix-blend-mode:multiply" opacity="0.43" d="M0.496785 14.3499C1.26522 11.648 2.89869 10.5174 3.82319 7.87146C4.74768 5.21521 5.93377 2.03272 3.9852 0L3.99263 0.00442217C3.99263 0.00442217 5.43288 1.11291 6.2786 1.94723C7.13473 3.57754 6.70221 6.97376 5.92337 9.8806C4.52028 15.1091 -1.03116 19.941 7.16743 30.2064C7.16 30.1946 7.13919 30.1872 7.10797 30.1754C1.7453 27.0578 -1.24371 20.4835 0.496785 14.3499Z" fill="url(#paint1_linear_226_4314)"/>
<path d="M10.0061 24.2556C13.4663 25.0987 15.9856 28.0586 16.0792 31.561L15.2142 31.9089C13.771 30.0811 11.2843 31.4151 9.09944 30.8918C4.13807 29.7007 1.10597 25.0575 0.218628 20.3744C0.694253 21.9619 3.39491 23.3402 5.0373 23.6556C6.67226 23.974 8.38451 23.8605 10.0046 24.2556H10.0061Z" fill="url(#paint2_linear_226_4314)"/>
<path style="mix-blend-mode:multiply" d="M16.0792 31.5625L15.2142 31.9104C13.771 30.0825 11.2829 31.4195 9.09944 30.8933C4.0593 29.6757 1.32891 25.2063 0.218628 20.3744C0.734384 21.2691 2.20882 25.4378 6.0599 27.5678C9.99569 29.7464 14.8159 27.9864 16.0792 31.5625Z" fill="url(#paint3_linear_226_4314)"/>
<path d="M8.16608 39.0419C7.28469 39.0419 6.83582 38.5141 6.83582 37.4631V35.342H7.28915V37.4145C7.28915 38.2945 7.49574 38.6365 8.16608 38.6365C8.83641 38.6365 9.04301 38.2901 9.04301 37.4145V35.342H9.49188V37.4631C9.49188 38.5141 9.04301 39.0419 8.16608 39.0419Z" fill="#4A4A49"/>
<path d="M11.9146 38.974V37.2582C11.9146 36.7688 11.8359 36.5934 11.4613 36.5934C11.2502 36.5934 10.9678 36.676 10.6081 36.8322V38.9726H10.1697V36.2853H10.6081V36.4947C10.9232 36.334 11.2086 36.2161 11.5103 36.2161C12.2297 36.2161 12.3576 36.6023 12.3576 37.2567V38.9726H11.9146V38.974Z" fill="#4A4A49"/>
<path d="M14.5438 38.974V38.7927C14.3818 38.9047 14.086 39.0418 13.6817 39.0418C13.1734 39.0418 12.8732 38.8163 12.8732 38.2797V38.1825C12.8732 37.4734 13.3607 37.3511 14.1202 37.3511H14.5245V37.155C14.5245 36.6907 14.4308 36.5875 13.8883 36.5875C13.5881 36.5875 13.3458 36.6126 13.05 36.6465V36.334C13.1288 36.3045 13.5034 36.2161 13.9225 36.2161C14.8247 36.2161 14.9674 36.5433 14.9674 37.155V38.9726H14.5438V38.974ZM14.5245 37.6828H14.1202C13.548 37.6828 13.3176 37.7506 13.3176 38.181V38.3122C13.3176 38.6158 13.5049 38.6984 13.7709 38.6984C14.092 38.6984 14.4115 38.5569 14.5245 38.4832V37.6813V37.6828Z" fill="#4A4A49"/>
<path d="M16.775 37.7904V37.8434C16.775 38.3078 16.8433 38.66 17.5924 38.66C17.8927 38.66 18.2821 38.6261 18.5392 38.5819V38.9342C18.352 38.9829 18.022 39.0418 17.5731 39.0418C16.6129 39.0418 16.332 38.6173 16.332 37.7461V37.5412C16.332 36.6951 16.711 36.2161 17.4795 36.2161C18.2479 36.2161 18.6418 36.6907 18.6418 37.5943V37.7904H16.775ZM18.184 37.3806C18.184 37.0533 18.1156 36.5993 17.4839 36.5993C16.8522 36.5993 16.7794 37.0533 16.7794 37.3806V37.4292H18.184V37.3806Z" fill="#4A4A49"/>
<path d="M22.2238 38.9741V37.1905C22.2238 36.8146 22.2238 36.5949 21.8195 36.5949C21.6322 36.5949 21.3706 36.6834 21.1343 36.8205C21.1536 36.9472 21.1536 37.074 21.1536 37.1919V38.9755H20.7107V37.1919C20.7107 36.816 20.7107 36.5964 20.3406 36.5964C20.1043 36.5964 19.8338 36.7188 19.6361 36.8308V38.9755H19.1976V36.2883H19.6361V36.4977C19.8576 36.337 20.1385 36.2191 20.4447 36.2191C20.7508 36.2191 20.9381 36.3311 21.0407 36.508C21.3558 36.3031 21.6322 36.2191 21.879 36.2191C22.6667 36.2191 22.6667 36.7762 22.6667 37.1919V38.9755H22.2238V38.9741Z" fill="#4A4A49"/>
<path d="M24.3656 39.0419C24.1827 39.0419 23.9271 39.008 23.7591 38.9638V40H23.3207V36.2854H23.7443V36.4667C23.9851 36.3001 24.2719 36.2176 24.532 36.2176C25.1533 36.2176 25.513 36.564 25.513 37.4691V37.7329C25.513 38.7692 25.0151 39.0434 24.3656 39.0434V39.0419ZM25.076 37.4676C25.076 36.8072 24.8694 36.6023 24.4652 36.6023C24.2541 36.6023 24.0802 36.6465 23.7606 36.8028V38.5967C23.9821 38.6409 24.1842 38.6704 24.3671 38.6704C24.8011 38.6704 25.076 38.5186 25.076 37.7314V37.4676Z" fill="#4A4A49"/>
<path d="M26.5089 36.8382V38.9741H26.0704V36.2869H26.5044V36.5021C26.7601 36.3016 27.0915 36.2191 27.4706 36.2191V36.6097C27.1153 36.6097 26.717 36.707 26.5104 36.8396L26.5089 36.8382Z" fill="#4A4A49"/>
<path d="M28.0888 37.7904V37.8434C28.0888 38.3078 28.1572 38.66 28.9063 38.66C29.2065 38.66 29.5959 38.6261 29.8531 38.5819V38.9342C29.6658 38.9829 29.3358 39.0418 28.887 39.0418C27.9268 39.0418 27.6459 38.6173 27.6459 37.7461V37.5412C27.6459 36.6951 28.0249 36.2161 28.7933 36.2161C29.5618 36.2161 29.9556 36.6907 29.9556 37.5943V37.7904H28.0888ZM29.4993 37.3806C29.4993 37.0533 29.431 36.5993 28.7993 36.5993C28.1676 36.5993 28.0947 37.0533 28.0947 37.3806V37.4292H29.4993V37.3806Z" fill="#4A4A49"/>
<path d="M31.3008 39.0419C30.9218 39.0419 30.5027 38.9638 30.4135 38.9343V38.5967C30.5755 38.6115 30.9604 38.6645 31.286 38.6645C31.7497 38.6645 31.8671 38.5378 31.8671 38.3034C31.8671 38.069 31.7839 37.9909 31.3201 37.7948L31.1225 37.7123C30.6008 37.4926 30.3778 37.273 30.3778 36.8868C30.3778 36.4372 30.678 36.2176 31.3588 36.2176C31.7229 36.2176 32.0782 36.281 32.1763 36.3149V36.6421C31.8909 36.6126 31.5654 36.5935 31.3781 36.5935C30.9842 36.5935 30.8207 36.6421 30.8207 36.8868C30.8207 37.0976 30.9099 37.1846 31.2934 37.3511L31.4911 37.4337C32.1213 37.7123 32.3085 37.8789 32.3085 38.2945C32.3085 38.6807 32.1019 39.0419 31.2978 39.0419H31.3008Z" fill="#4A4A49"/>
<path d="M34.3255 38.974V38.7927C34.1635 38.9047 33.8678 39.0418 33.4635 39.0418C32.9551 39.0418 32.6549 38.8163 32.6549 38.2797V38.1825C32.6549 37.4734 33.1424 37.3511 33.9019 37.3511H34.3062V37.155C34.3062 36.6907 34.2126 36.5875 33.6701 36.5875C33.3698 36.5875 33.1276 36.6126 32.8318 36.6465V36.334C32.9106 36.3045 33.2851 36.2161 33.7043 36.2161C34.6065 36.2161 34.7491 36.5433 34.7491 37.155V38.9726H34.3255V38.974ZM34.3062 37.6828H33.9019C33.3297 37.6828 33.0993 37.7506 33.0993 38.181V38.3122C33.0993 38.6158 33.2866 38.6984 33.5527 38.6984C33.8737 38.6984 34.1933 38.5569 34.3062 38.4832V37.6813V37.6828Z" fill="#4A4A49"/>
<path d="M37.6548 37.755V39.0374H37.0885V35.0118H38.5615C39.4607 35.0118 39.8932 35.4466 39.8932 36.3414C39.8932 37.2361 39.4607 37.755 38.5615 37.755H37.6548ZM38.5629 37.217C39.0832 37.217 39.3165 36.8809 39.3165 36.3429C39.3165 35.8048 39.0832 35.5528 38.5629 35.5528H37.6563V37.217H38.5629Z" fill="#4A4A49"/>
<path d="M42.1925 37.5885H41.1699V39.039H40.6022V35.0133H42.1167C43.0115 35.0133 43.444 35.3848 43.444 36.2722C43.444 36.8883 43.2211 37.2524 42.7544 37.4367L43.4663 39.0375H42.8406L42.1925 37.587V37.5885ZM42.1167 35.5469H41.1699V37.0563H42.1227C42.6741 37.0563 42.8599 36.7483 42.8599 36.2839C42.8599 35.7857 42.6191 35.5469 42.1167 35.5469Z" fill="#4A4A49"/>
<path d="M44.0223 37.0489C44.0223 35.7149 44.385 34.9499 45.6365 34.9499C46.888 34.9499 47.2551 35.7105 47.2551 37.0489C47.2551 38.3874 46.8924 39.1023 45.6365 39.1023C44.3805 39.1023 44.0223 38.3948 44.0223 37.0489ZM46.6665 37.0489C46.6665 36.0525 46.4733 35.4953 45.638 35.4953C44.8027 35.4953 44.608 36.0466 44.608 37.0489C44.608 38.0513 44.7952 38.5569 45.638 38.5569C46.4807 38.5569 46.6665 38.0808 46.6665 37.0489Z" fill="#4A4A49"/>
<path d="M48.022 35.0133H48.9747L50.0211 38.2385L51.0734 35.0133H52.0143V39.039H51.448V35.6973H51.3588L50.3198 38.8871H49.7179L48.676 35.6973H48.5883V39.039H48.022V35.0133Z" fill="#4A4A49"/>
<path d="M53.5347 35.0133H52.9669V39.039H53.5347V35.0133Z" fill="#4A4A49"/>
<path d="M56.0719 36.962H57.2V38.9623C57.2 38.9623 56.3692 39.1023 55.8727 39.1023C54.6331 39.1023 54.2823 38.3491 54.2823 37.0254C54.2823 35.7017 54.651 34.9499 55.8549 34.9499C56.4687 34.9499 57.2 35.112 57.2 35.112L57.1762 35.6058C57.1762 35.6058 56.4643 35.5012 55.9307 35.5012C55.076 35.5012 54.8665 35.9434 54.8665 37.0254C54.8665 38.1073 55.0478 38.5569 55.9129 38.5569C56.2235 38.5569 56.6203 38.4935 56.6382 38.4935V37.4676H56.0704V36.962H56.0719Z" fill="#B6C20C"/>
<path d="M58.7266 35.0133H59.8904L60.9189 39.0315H60.3467L60.0836 38.1338H58.5051L58.2539 39.0374H57.6862L58.7281 35.0118L58.7266 35.0133ZM58.627 37.5943H59.9662L59.4445 35.5365H59.1591L58.627 37.5943Z" fill="#B6C20C"/>
<path d="M63.8231 35.5866C63.8231 35.5866 63.0042 35.4894 62.6653 35.4894C62.1391 35.4894 61.8701 35.6633 61.8701 36.051C61.8701 36.4814 62.1094 36.5728 62.799 36.7408C63.6254 36.9546 63.9509 37.1713 63.9509 37.8773C63.9509 38.7293 63.4263 39.0949 62.6073 39.0949C62.1688 39.0949 61.3737 38.9622 61.3737 38.9622L61.4316 38.4522C61.4316 38.4522 62.1867 38.551 62.6014 38.551C63.1275 38.551 63.3847 38.3711 63.3847 37.8965C63.3847 37.5147 63.181 37.3924 62.5493 37.2464C61.6902 37.0489 61.2979 36.8116 61.2979 36.0642C61.2979 35.3169 61.8225 34.9454 62.6653 34.9454C63.1156 34.9454 63.8707 35.0796 63.8707 35.0796L63.8231 35.5881V35.5866Z" fill="#B6C20C"/>
<defs>
<linearGradient id="paint0_linear_226_4314" x1="1.80826" y1="28.3704" x2="7.90575" y2="6.21273" gradientUnits="userSpaceOnUse">
<stop offset="0.24" stop-color="#253470"/>
<stop offset="1" stop-color="#63BEEC"/>
</linearGradient>
<linearGradient id="paint1_linear_226_4314" x1="7.19297" y1="15.3493" x2="2.26792" y2="14.5997" gradientUnits="userSpaceOnUse">
<stop offset="0.02" stop-color="#3C245F"/>
<stop offset="1" stop-color="#3C245F" stop-opacity="0"/>
</linearGradient>
<linearGradient id="paint2_linear_226_4314" x1="12.4179" y1="23.5411" x2="3.84447" y2="28.5282" gradientUnits="userSpaceOnUse">
<stop stop-color="#8FC02B"/>
<stop offset="1" stop-color="#129393"/>
</linearGradient>
<linearGradient id="paint3_linear_226_4314" x1="11.6802" y1="23.9632" x2="3.87346" y2="28.5042" gradientUnits="userSpaceOnUse">
<stop stop-color="#42B088"/>
<stop offset="0.95" stop-color="#42B088" stop-opacity="0"/>
</linearGradient>
</defs>
</svg>
