<svg width="54" height="42" viewBox="0 0 54 42" fill="none" xmlns="http://www.w3.org/2000/svg">
<path d="M6 3C4.3125 3 3 4.40625 3 6V21H16.5C16.9688 21 17.4375 21.2812 17.7188 21.75L20.625 26.0625L25.5938 13.0312C25.7812 12.4688 26.25 12.0938 26.9062 12C27.4688 12 28.0312 12.375 28.3125 12.8438L32.3438 21H40.5C41.25 21 42 21.75 42 22.5C42 23.3438 41.25 24 40.5 24H31.5C30.8438 24 30.375 23.7188 30.0938 23.25L27.1875 17.25L22.4062 29.8125C22.125 30.375 21.6562 30.75 21.0938 30.75C20.5312 30.8438 20.0625 30.5625 19.6875 30.0938L15.6562 24H3V36C3 37.6875 4.3125 39 6 39H48C49.5938 39 51 37.6875 51 36V6C51 4.40625 49.5938 3 48 3H6ZM0 6C0 2.71875 2.625 0 6 0H48C51.2812 0 54 2.71875 54 6V36C54 39.375 51.2812 42 48 42H6C2.625 42 0 39.375 0 36V6Z" fill="#E44B0A"/>
</svg>
