<?xml version="1.0" standalone="no"?>
<!DOCTYPE svg PUBLIC "-//W3C//DTD SVG 1.1//EN" "http://www.w3.org/Graphics/SVG/1.1/DTD/svg11.dtd" >
<svg xmlns="http://www.w3.org/2000/svg">
<metadata>Generated by IcoMoon</metadata>
<defs>
<font id="icomoon" horiz-adv-x="1024">
<font-face units-per-em="1024" ascent="960" descent="-64" />
<missing-glyph horiz-adv-x="1024" />
<glyph unicode="&#x20;" horiz-adv-x="512" d="" />
<glyph unicode="&#xe900;" glyph-name="youtube" horiz-adv-x="1502" d="M751.2 959.933c0 0 453.332 0 567.999-32 61.338-16 111.998-66.667 128-130.667 31.997-112.003 32.003-352 32.003-352 0-1.574-0.109-237.715-32.003-352.001-16.002-63.993-66.669-111.998-128-128-114.674-29.334-567.999-29.334-567.999-29.334-1.345 0-456.169 0.048-570.666 29.334-61.331 16.002-111.998 64.007-128 128-31.893 114.285-32 350.426-32 352.001 0 0 0.002 239.997 32 352 16 63.999 66.668 114.665 128 130.667 114.497 31.953 569.321 32 570.666 32zM601.867 229.267l378.668 216-378.668 216v-432z" />
<glyph unicode="&#xe901;" glyph-name="add-user" horiz-adv-x="1205" d="M506.5 357.581c186.351 0 336.939-150.588 336.939-336.938 0-30.118-26.353-54.591-56.471-54.591h-732.233c-30.115 0-54.588 24.474-54.588 54.591 0 186.35 148.708 336.938 335.059 336.938h171.294zM335.206 267.228c-124.233 0-225.882-92.238-242.824-210.824h656.939c-16.938 118.591-118.585 210.824-242.821 210.824h-171.294zM994.027 718.993c24.474 0 45.176-20.706 45.176-45.176v-120.471h120.471c24.474 0 45.176-20.706 45.176-45.176 0-26.352-20.703-45.176-45.176-45.176h-120.471v-120.471c0-26.353-20.703-45.176-45.176-45.176-26.347 0-45.176 18.824-45.176 45.176v120.471h-120.471c-26.347 0.002-45.176 18.826-45.176 45.176 0 24.469 18.83 45.174 45.176 45.176h120.471v120.471c0 24.469 18.83 45.174 45.176 45.176zM421.794 929.816c84.705 0 163.765-47.059 207.056-120.471 43.297-75.294 43.297-167.529 0-240.941-43.292-75.292-122.352-120.471-207.056-120.471-86.586 0.002-165.648 45.178-208.941 120.471-43.293 73.411-43.292 165.648 0 240.941 43.294 73.411 122.355 120.469 208.941 120.471zM421.794 839.463c-54.586-0.002-103.53-30.119-131.765-75.294-26.351-47.058-26.352-105.413 0-150.588 28.235-47.058 77.178-75.292 131.765-75.294 52.705 0 101.647 28.237 129.882 75.294 26.353 45.176 26.353 103.529 0 150.588-28.235 45.176-77.177 75.294-129.882 75.294z" />
<glyph unicode="&#xe902;" glyph-name="arrow-right" horiz-adv-x="964" d="M241.088 863.933c148.705 86.587 331.295 86.586 481.88 0 148.709-86.588 240.941-244.706 240.941-416 0-173.176-92.232-331.294-240.941-417.882-150.585-86.588-333.175-86.588-481.88 0-150.586 86.588-240.941 244.706-240.941 417.882 0 171.292 90.355 329.411 240.941 416zM677.792 786.757c-122.35 69.645-271.058 69.646-391.527 0-122.351-71.53-195.765-199.531-195.765-338.824 0.001-141.173 73.414-269.179 195.765-340.708 120.469-69.644 269.177-69.644 391.527 0 120.471 71.529 195.765 199.529 195.765 340.708 0 139.294-75.294 267.294-195.765 338.824zM483.441 646.992c17.129 15.456 43.053 14.357 60.706-3.294l165.648-165.647c16.938-16.941 16.938-45.176 0-62.118l-165.648-165.649c-17.652-17.649-43.577-18.745-60.706-3.295l-6.589 6.59c-15.45 17.131-14.353 43.056 3.294 60.705l88.471 88.473h-282.353c-26.35 0.002-45.176 18.825-45.176 45.176 0 24.469 18.826 45.173 45.176 45.176h282.353l-91.765 91.764c-14.424 15.985-14.423 39.544 0 55.53l6.589 6.588z" />
<glyph unicode="&#xe903;" glyph-name="arrow-down" horiz-adv-x="887" d="M478.050 925.789c27.733 0 51.2-23.467 51.2-51.2v-727.467l268.801 283.734c19.197 21.332 53.33 21.33 72.533 2.133 21.333-19.2 21.333-51.2 2.13-72.533l-358.397-375.467c-10.666-10.663-23.469-14.93-36.267-14.93-14.93 0-27.735 4.267-38.4 14.93l-358.4 375.467c-19.196 21.331-19.193 53.333 2.133 72.533 21.332 19.199 53.333 19.197 72.533-2.133l270.933-283.734v727.467c0 27.73 21.337 51.195 51.2 51.2z" />
<glyph unicode="&#xe904;" glyph-name="transformer-bolt" horiz-adv-x="731" d="M259.048 889.905v-15.238h45.714c15.238 0 30.476-15.238 30.476-30.476 0-17.143-15.238-30.476-30.476-30.476h-182.857c-17.143 0-30.476 13.333-30.476 30.476 0 15.238 13.333 30.476 30.476 30.476h45.714v15.238c0 24.762 19.047 45.714 45.714 45.714 24.762 0 45.714-20.952 45.714-45.714zM563.81 889.905v-15.238h45.714c15.238 0 30.476-15.238 30.476-30.476 0-17.143-15.238-30.476-30.476-30.476h-182.857c-17.143 0-30.476 13.333-30.476 30.476 0 15.238 13.333 30.476 30.476 30.476h45.714v15.238c0 24.762 19.046 45.714 45.714 45.714 24.761 0 45.714-20.952 45.714-45.714zM91.429 722.286c0 15.238 13.333 30.476 30.476 30.476h182.857c15.238 0 30.476-15.238 30.476-30.476 0-17.143-15.238-30.476-30.476-30.476h-182.857c-17.143 0-30.476 13.333-30.476 30.476zM396.19 722.286c0 15.238 13.333 30.476 30.476 30.476h182.857c15.238 0 30.476-15.238 30.476-30.476 0-17.143-15.238-30.476-30.476-30.476h-182.857c-17.143 0-30.476 13.333-30.476 30.476zM45.714 630.857h640c24.761 0 45.714-20.953 45.714-45.714 0-26.667-20.953-45.714-45.714-45.714h-15.238v-487.619h15.238c24.761 0 45.714-20.953 45.714-45.714 0-26.668-20.953-45.714-45.714-45.714h-640c-26.667 0-45.714 19.046-45.714 45.714 0 24.761 19.048 45.714 45.714 45.714h15.238v487.619h-15.238c-26.667 0-45.714 19.047-45.714 45.714 0 24.762 19.048 45.714 45.714 45.714zM152.381 51.81h426.667v487.619h-426.667v-487.619zM443.809 470.86c11.429-7.621 15.238-22.86 9.524-34.289l-43.81-112.382h78.095c11.43 0 22.86-7.617 28.57-19.046 3.813-11.43 0-26.668-9.523-34.284l-182.856-152.381c-11.428-9.523-26.666-9.523-38.095-1.907-11.429 9.523-15.238 24.761-9.524 36.191l43.81 110.475h-76.19c-13.333 0-24.762 9.523-28.572 20.953-5.714 11.43-1.905 24.761 7.619 34.289l182.857 152.381c11.429 7.617 26.667 9.521 38.095 0z" />
<glyph unicode="&#xe905;" glyph-name="bolt-slash" horiz-adv-x="1317" d="M121.143 924.19l360-281.905 327.617 280c9.523 7.619 20.953 13.333 34.289 13.333 36.186 0 62.854-36.191 53.331-70.476l-102.858-358.095h163.811c36.191 0 66.667-28.572 66.667-64.763 0-20.953-9.523-38.093-24.761-51.429l-93.335-79.999 342.86-270.477c20.953-15.238 24.761-43.808 7.617-62.854-15.238-20.953-43.808-24.761-62.854-7.621l-1127.621 883.81c-20.952 15.238-24.762 43.81-7.619 62.857 15.238 20.952 43.81 24.762 62.858 7.619zM555.427 585.143l135.241-106.667 83.807 295.238-219.048-188.572zM770.667 417.524l60.952-49.523 57.144 49.523h-118.096zM761.144 188.952l-255.239-217.142c-9.523-7.621-20.953-11.43-34.285-11.43-36.191 0-62.858 34.284-53.334 68.569l100.951 352.383 78.097-60.952-57.144-200.002 148.573 125.718 72.382-57.144zM340.19 522.286l171.429-135.238h-156.191c-34.285 0-62.857 28.57-62.857 62.859 0 19.046 7.619 38.093 20.953 49.522l26.666 22.857z" />
<glyph unicode="&#xe906;" glyph-name="file-invoice-dollar" horiz-adv-x="731" d="M640 82.286v548.571h-152.381c-34.285 0-60.952 26.667-60.952 60.952v152.381h-304.762c-17.143 0-30.476-15.238-30.476-30.476v-731.429c0-17.145 13.333-30.476 30.476-30.476h487.619c15.238 0 30.476 13.332 30.476 30.476zM0 813.714c0 66.667 53.333 121.905 121.905 121.905h314.286c32.381 0 62.858-13.333 85.713-36.191l173.334-173.333c22.86-22.857 36.191-53.333 36.191-85.714v-558.095c0-68.569-55.237-121.905-121.905-121.905h-487.619c-68.571 0-121.905 53.336-121.905 121.905v731.429zM365.714 524.19c20.953 0 38.095-17.143 38.095-38.095v-19.049c13.333-1.902 26.666-5.715 38.095-7.617 20.953-5.715 34.285-26.668 28.572-45.714-3.81-20.953-24.762-34.284-45.714-28.574-20.953 3.813-41.905 7.621-60.952 7.621-15.238 1.902-30.476-1.907-41.905-7.621-9.524-5.71-9.524-9.523-9.524-11.425 0-1.907 1.905-3.813 7.619-7.621 11.429-5.715 30.476-11.43 55.238-17.14 20.953-5.715 49.524-13.336 70.476-26.668 22.858-13.336 47.62-36.191 47.62-74.289 1.902-39.999-20.953-66.667-47.62-79.999-13.333-7.617-28.571-13.332-43.809-15.238v-19.046c0-20.953-17.143-38.098-38.095-38.098s-38.095 17.145-38.095 38.098v20.953c-19.048 3.808-36.191 9.523-51.429 13.332-3.809 1.907-7.619 1.907-11.429 3.808-20.952 5.715-32.381 26.668-26.666 47.621s28.572 32.383 47.619 24.761c5.714 0 9.524-1.907 13.333-3.808 26.666-7.621 47.619-13.332 68.571-13.332 17.143-1.907 32.381 1.902 43.81 7.617 7.619 3.808 9.524 7.617 9.524 13.332 0 0 0 3.813-9.524 9.528-13.333 5.71-30.476 11.425-55.238 17.14l-1.905 1.907c-20.952 5.715-47.619 13.332-68.571 22.855-22.857 13.336-47.619 36.191-47.619 74.289-1.905 39.999 24.762 64.761 49.524 78.092 13.333 7.621 26.666 11.43 41.905 15.238v19.049c0 20.953 17.143 38.095 38.095 38.095zM182.857 752.762h152.381c15.238 0 30.476-15.238 30.476-30.476 0-17.143-15.238-30.476-30.476-30.476h-152.381c-17.143 0-30.476 13.333-30.476 30.476 0 15.238 13.333 30.476 30.476 30.476zM182.857 630.857h152.381c15.238 0 30.476-15.238 30.476-30.476 0-17.143-15.238-30.476-30.476-30.476h-152.381c-17.143 0-30.476 13.333-30.476 30.476 0 15.238 13.333 30.476 30.476 30.476z" />
<glyph unicode="&#xe907;" glyph-name="receipt" horiz-adv-x="731" d="M74.286 924.19l78.095-66.667 76.19 66.667c17.143 13.333 41.905 13.333 59.048 0l78.095-66.667 76.19 66.667c17.143 13.333 41.905 13.333 59.046 0l78.097-66.667 76.19 66.667c13.332 11.429 32.383 13.333 49.523 5.714 15.238-7.619 26.668-22.857 26.668-40v-883.81c0-19.046-11.43-34.284-26.668-41.906-17.14-7.617-36.191-5.715-49.523 5.715l-76.19 66.667-78.097-66.667c-17.141-13.332-41.903-13.332-59.046 0l-76.19 66.667-78.095-66.667c-17.143-13.332-41.905-13.332-59.048 0l-76.19 66.667-78.095-66.667c-13.333-11.43-32.381-13.332-47.619-5.715-17.143 7.621-26.667 22.86-26.667 41.906v883.81c0 17.143 9.524 32.381 26.667 40 15.238 7.619 34.286 5.714 47.619-5.714zM91.429 105.145l30.476 26.663c17.143 13.336 41.905 13.336 59.048 0l78.095-66.667 76.19 66.667c17.143 13.336 41.905 13.336 59.048 0l78.095-66.667 76.19 66.667c17.145 13.336 41.906 13.336 59.046 0l32.383-26.663v683.807l-32.383-26.667c-17.14-13.333-41.901-13.333-59.046 0l-76.19 66.667-78.095-66.667c-17.143-13.333-41.905-13.333-59.048 0l-76.19 66.667-78.095-66.667c-17.143-13.333-41.905-13.333-59.048 0l-30.476 26.667v-683.807zM228.571 661.333h274.286c24.761 0 45.714-20.953 45.714-45.714 0-26.667-20.953-45.714-45.714-45.714h-274.286c-26.667 0-45.714 19.047-45.714 45.714 0 24.762 19.047 45.714 45.714 45.714zM228.571 326.095h274.286c24.761 0 45.714-20.953 45.714-45.714 0-26.668-20.953-45.714-45.714-45.714h-274.286c-26.667 0-45.714 19.046-45.714 45.714 0 24.761 19.047 45.714 45.714 45.714zM182.857 448c0 24.762 19.047 45.714 45.714 45.714h274.286c24.761 0 45.714-20.953 45.714-45.714 0-26.668-20.953-45.714-45.714-45.714h-274.286c-26.667 0-45.714 19.046-45.714 45.714z" />
<glyph unicode="&#xe908;" glyph-name="lightbulb-gear" horiz-adv-x="1073" d="M573.713 528c7.621 22.858 11.43 45.714 11.43 72.381 0 133.334-110.476 243.81-243.81 243.81-135.238 0-243.81-110.476-243.81-243.81 0-53.333 15.238-100.952 41.905-139.049 7.619-11.425 15.238-22.855 24.762-34.284 24.762-34.284 53.333-74.284 76.19-114.283 19.047-36.191 30.476-74.289 34.285-108.573h-91.429c-5.714 22.86-11.428 43.808-22.857 64.761-19.047 34.284-41.905 66.667-66.666 99.050-9.524 13.332-19.048 26.663-28.572 39.999-38.095 55.237-59.048 119.999-59.048 192.38 0 184.762 148.572 335.238 335.238 335.238 184.764 0 333.332-150.476 335.238-335.238-34.284-13.333-53.336-47.619-53.336-81.905v-1.905c-15.233 7.619-32.378 11.428-49.523 11.428zM442.286 143.238c7.619-19.046 15.238-36.191 24.762-51.429 5.714-9.523 11.429-19.046 17.143-28.57-19.048-60.952-76.19-102.858-142.857-102.858-85.714 0-152.381 66.667-152.381 152.381v30.476h253.333zM249.905 600.381c0-17.143-15.238-30.476-30.476-30.476-17.143 0-30.476 13.333-30.476 30.476 0 83.81 66.667 152.381 152.381 152.381 15.238 0 30.476-15.238 30.476-30.476 0-17.143-15.238-30.476-30.476-30.476-51.429 0-91.429-41.905-91.429-91.429zM684.188 518.476c0 13.333 7.621 26.667 20.953 28.572 19.051 5.714 39.999 7.619 62.859 7.619 20.953 0 41.906-1.905 60.952-7.619 13.332-1.905 22.86-15.238 22.86-28.572v-32.381c0-15.236 7.617-28.572 20.948-36.189 13.336-7.621 28.574-9.523 41.906-1.907l26.668 15.238c11.43 7.621 24.761 5.715 34.284-3.808 15.238-15.238 28.574-32.383 38.098-51.429 11.425-19.046 20.953-39.999 26.663-59.046 3.813-13.336-1.902-26.668-13.332-34.289l-28.57-15.238c-11.43-7.617-19.051-20.953-19.051-34.284 0-15.238 7.621-28.57 19.051-36.191l28.57-15.238c11.43-5.715 17.145-19.046 13.332-32.383-5.71-20.948-15.238-39.999-26.663-59.046-9.523-19.046-22.86-36.191-38.098-51.429-9.523-9.523-22.855-11.43-34.284-5.715l-26.668 15.238c-13.332 7.621-28.57 5.715-41.906 0-13.332-7.617-20.948-20.953-20.948-36.186v-34.289c0-13.332-9.528-24.761-22.86-28.57-19.046-3.808-39.999-5.715-60.952-5.715-22.86 0-43.808 1.907-62.859 5.715-13.332 3.808-20.953 15.238-20.953 28.57v34.289c0 15.233-9.523 28.57-22.855 36.186-13.332 7.621-28.57 7.621-41.906 0l-26.668-15.238c-11.425-5.715-24.761-3.808-34.284 5.715-15.238 15.238-26.668 32.383-38.093 51.429-11.43 19.046-20.953 38.098-26.668 59.046-3.808 13.336 1.907 26.668 13.332 32.383l26.668 15.238c13.336 7.621 20.953 20.953 20.953 36.191 0 13.332-7.617 28.57-20.953 36.191l-26.668 15.238c-11.425 5.715-17.14 19.046-13.332 32.383 7.617 19.046 15.238 39.999 26.668 59.046 11.425 19.046 22.855 36.191 38.093 51.429 9.523 9.523 22.86 11.43 34.284 3.808l26.668-13.332c13.336-7.621 28.574-7.621 41.906 0 13.332 7.617 22.855 20.953 22.855 36.189v32.381zM859.429 265.143c0 32.383-17.145 64.761-45.714 81.905-28.57 17.14-64.761 17.14-93.335 0-28.57-17.145-45.714-49.523-43.808-81.905-1.907-34.284 15.238-66.667 43.808-83.812 28.574-17.14 64.766-17.14 93.335 0 28.57 17.145 45.714 49.527 45.714 83.812z" />
<glyph unicode="&#xe909;" glyph-name="sliders" horiz-adv-x="1078" d="M0 111.158c0 27.368 21.053 50.526 50.526 50.526h124.211c21.052 67.368 86.316 117.895 162.105 117.895 73.684 0 138.947-50.526 160-117.895h530.526c27.368 0 50.526-23.159 50.526-50.526 0-29.475-23.159-50.526-50.526-50.526h-530.526c-21.053-69.476-86.316-117.895-160-117.895-75.789 0-141.053 48.419-162.105 117.895h-124.211c-29.474 0-50.526 21.051-50.526 50.526zM269.474 111.158c0-37.893 29.474-67.368 67.368-67.368 35.789 0 67.368 29.475 67.368 67.368 0 35.791-31.579 67.368-67.368 67.368-37.894 0-67.368-31.577-67.368-67.368zM673.684 448c0-37.893 29.475-67.368 67.368-67.368 35.791 0 67.368 29.475 67.368 67.368 0 35.789-31.577 67.368-67.368 67.368-37.893 0-67.368-31.579-67.368-67.368zM741.053 616.421c73.685 0 138.946-50.526 160.003-117.895h126.313c27.368 0 50.526-23.158 50.526-50.526 0-29.475-23.159-50.526-50.526-50.526h-126.313c-21.057-69.476-86.318-117.895-160.003-117.895-75.787 0-141.053 48.419-162.105 117.895h-528.422c-29.474 0-50.526 21.051-50.526 50.526 0 27.368 21.053 50.526 50.526 50.526h528.422c21.051 67.368 86.318 117.895 162.105 117.895zM404.211 717.474c35.789 0 67.368 29.474 67.368 67.368 0 35.789-31.579 67.368-67.368 67.368-37.894 0-67.368-31.579-67.368-67.368 0-37.894 29.474-67.368 67.368-67.368zM564.213 835.368h463.155c27.368 0 50.526-23.158 50.526-50.526 0-29.474-23.159-50.526-50.526-50.526h-463.155c-21.057-69.474-86.318-117.895-160.003-117.895-75.789 0-141.053 48.421-162.105 117.895h-191.579c-29.474 0-50.526 21.052-50.526 50.526 0 27.368 21.053 50.526 50.526 50.526h191.579c21.052 67.368 86.316 117.895 162.105 117.895 73.684 0 138.946-50.526 160.003-117.895z" />
<glyph unicode="&#xe90a;" glyph-name="ballot-check" horiz-adv-x="878" d="M755.81 844.19h-609.524c-17.143 0-30.476-15.238-30.476-30.476v-731.429c0-17.145 13.333-30.476 30.476-30.476h609.524c15.238 0 30.476 13.332 30.476 30.476v731.429c0 15.238-15.238 30.476-30.476 30.476zM146.286 935.619h609.524c66.667 0 121.905-55.238 121.905-121.905v-731.429c0-68.569-55.237-121.905-121.905-121.905h-609.524c-68.571 0-121.905 53.336-121.905 121.905v731.429c0 66.667 53.333 121.905 121.905 121.905zM176.762 722.286c0 15.238 13.333 30.476 30.476 30.476h60.952c15.238 0 30.476-15.238 30.476-30.476v-60.952c0-17.143-15.238-30.476-30.476-30.476h-60.952c-17.143 0-30.476 13.333-30.476 30.476v60.952zM207.238 265.143h60.952c15.238 0 30.476-15.238 30.476-30.476v-60.952c0-17.145-15.238-30.476-30.476-30.476h-60.952c-17.143 0-30.476 13.332-30.476 30.476v60.952c0 15.238 13.333 30.476 30.476 30.476zM359.619 691.81c0 24.762 19.047 45.714 45.714 45.714h274.286c24.761 0 45.714-20.953 45.714-45.714 0-26.667-20.953-45.714-45.714-45.714h-274.286c-26.667 0-45.714 19.047-45.714 45.714zM420.571 448c0 24.762 19.047 45.714 45.714 45.714h213.333c24.761 0 45.714-20.953 45.714-45.714 0-26.668-20.953-45.714-45.714-45.714h-213.333c-26.667 0-45.714 19.046-45.714 45.714zM359.619 204.19c0 24.761 19.047 45.714 45.714 45.714h274.286c24.761 0 45.714-20.953 45.714-45.714 0-26.668-20.953-45.714-45.714-45.714h-274.286c-26.667 0-45.714 19.046-45.714 45.714zM350.095 470.86l-91.429-91.429c-11.429-11.43-32.381-11.43-43.81 0l-45.714 45.709c-11.428 11.43-11.428 32.383 0 43.813 11.428 11.428 32.381 11.428 43.81 0l24.762-24.761 68.571 70.475c11.428 11.428 32.381 11.428 43.81 0s11.428-32.381 0-43.807z" />
<glyph unicode="&#xe90b;" glyph-name="circle-info" horiz-adv-x="1092" d="M546.133 853.333c-140 0-266.934-74.667-337.867-194.133-69.067-121.333-69.067-268.8 0-388.27 70.933-121.33 197.867-194.13 337.867-194.13 138.131 0 265.066 72.8 336.002 194.13 69.065 119.47 69.065 266.937 0 388.27-70.936 119.467-197.871 194.133-336.002 194.133zM546.133-12.8c-171.733 0-328.533 89.6-414.4 238.933-85.867 147.467-85.867 328.533 0 477.867 85.866 147.467 242.667 238.933 414.4 238.933 169.868 0 326.67-91.466 412.535-238.933 85.866-149.333 85.866-330.4 0-477.867-85.866-149.333-242.668-238.933-412.535-238.933zM471.467 315.733h44.8v119.467h-44.8c-26.133 0-44.8 18.667-44.8 44.8 0 24.267 18.667 44.8 44.8 44.8h89.6c24.267 0 44.8-20.533 44.8-44.8v-164.267h14.933c24.267 0 44.8-20.533 44.8-44.803 0-26.132-20.533-44.797-44.8-44.797h-149.333c-26.133 0-44.8 18.664-44.8 44.797 0 24.27 18.667 44.803 44.8 44.803zM546.133 584.533c-33.6 0-59.733 26.133-59.733 59.733 0 31.733 26.133 59.733 59.733 59.733 31.733 0 59.733-28 59.733-59.733 0-33.6-28-59.733-59.733-59.733z" />
<glyph unicode="&#xe90c;" glyph-name="list-check" horiz-adv-x="1182" d="M456 684.512v1.436l-103.385-114.872c-5.745-7.179-14.36-11.487-24.411-11.487-8.615-1.436-18.666 2.872-24.411 10.051l-57.436 57.436c-14.359 12.923-14.359 34.462 0 48.821 12.923 12.923 34.461 12.923 48.821 0l31.589-33.025 78.974 89.025c12.923 12.923 34.462 14.359 48.821 1.436 12.923-12.923 14.36-34.462 1.436-48.821zM456 454.769v1.436l-103.385-114.872c-5.745-7.179-14.36-11.487-24.411-11.487-8.615-1.436-18.666 2.872-24.411 10.051l-57.436 57.436c-14.359 12.923-14.359 34.462 0 48.821 12.923 12.923 34.461 12.923 48.821 0l31.589-33.025 78.974 89.025c12.923 12.923 34.462 14.36 48.821 1.436 12.923-12.923 14.36-34.462 1.436-48.821zM546.462 617.026c-20.102 0-34.462 14.36-34.462 34.462 0 18.666 14.36 34.462 34.462 34.462h390.564c18.666 0 34.462-15.796 34.462-34.462 0-20.102-15.796-34.462-34.462-34.462h-390.564zM512 421.744c0 18.666 14.36 34.462 34.462 34.462h390.564c18.666 0 34.462-15.796 34.462-34.462 0-20.102-15.796-34.462-34.462-34.462h-390.564c-20.102 0-34.462 14.36-34.462 34.462zM466.051 192c0 18.666 14.36 34.462 34.462 34.462h436.513c18.666 0 34.462-15.796 34.462-34.462 0-20.102-15.796-34.462-34.462-34.462h-436.513c-20.102 0-34.462 14.36-34.462 34.462zM374.154 192c0-25.847-21.538-45.949-45.949-45.949-25.847 0-45.949 20.102-45.949 45.949 0 24.411 20.102 45.949 45.949 45.949 24.411 0 45.949-21.538 45.949-45.949z" />
<glyph unicode="&#xe90d;" glyph-name="cards-blank" horiz-adv-x="1183" d="M268.268 566.222c-3.734-2.489-6.224-8.711-2.489-12.445l207.822-360.887c2.489-3.734 7.466-6.224 12.445-2.489l240.178 138.133c4.977 2.489 6.221 8.711 3.732 12.445l-207.822 360.887c-2.489 3.734-8.711 6.224-13.687 3.734l-240.178-139.378zM213.511 523.91c-18.667 32.356-7.467 74.668 24.89 94.579l240.176 138.133c33.601 18.667 75.913 7.467 94.579-24.888l207.822-360.889c19.911-32.356 8.711-74.668-24.888-94.579l-240.178-138.133c-33.601-18.666-75.913-7.466-94.579 24.89l-207.822 360.887zM776.001 242.668c52.265 29.867 69.689 95.821 39.822 148.089l-170.489 294.932c2.489 1.245 4.977 1.245 7.466 1.245h278.756c37.333 0 69.689-32.356 69.689-69.689v-418.133c0-38.577-32.356-69.689-69.689-69.689h-278.756c-17.422 0-33.601 4.979-44.799 16.177l168 97.068z" />
<glyph unicode="&#xe90e;" glyph-name="handshake-angle" horiz-adv-x="1206" d="M533.333 368.356c-49.778 0-89.6 39.822-89.6 89.6v119.467c0 59.733 48.533 109.511 109.511 109.511h171.734c2.489 0 4.977 0 7.466 2.489l68.444 67.199c11.2 12.445 29.867 12.445 42.312 0 11.2-11.2 11.2-29.867 0-41.067l-68.444-68.444c-13.69-13.69-31.111-19.911-49.778-19.911h-171.734c-28.622 0-49.778-22.401-49.778-49.778v-119.467c0-17.422 12.445-29.867 29.867-29.867 16.177 0 29.867 12.445 29.867 29.867v99.556c0 16.177 12.445 29.867 29.867 29.867 16.177 0 29.867-13.69 29.867-29.867v-29.867h129.422c48.533 0 89.6-41.067 89.6-89.6 0-32.356-17.422-59.733-41.067-75.91 0-4.979 1.245-9.956 1.245-13.69 0-41.067-27.377-75.91-64.712-87.111-11.198-31.111-39.822-52.267-74.666-52.267h-143.112c-2.487 0-4.977-1.245-7.466-3.734l-68.444-67.199c-11.2-12.445-29.867-12.445-41.067 0-12.445 11.2-12.445 29.867 0 42.312l67.199 67.199c13.69 13.69 31.111 21.156 49.778 21.156h143.112c9.956 0 19.911 8.711 19.911 19.911 0 16.177 12.445 29.867 29.867 29.867 16.177 0 29.867 12.445 29.867 29.867 0 4.979-2.489 9.956-4.979 14.932-4.977 8.713-4.977 18.669-1.242 27.379 3.732 8.711 11.2 14.932 21.154 17.422 13.69 2.489 24.89 14.932 24.89 29.867 0 16.177-13.69 29.867-29.867 29.867h-129.422v-9.956c0-49.778-41.067-89.6-89.6-89.6zM403.911 601.068v-103.29l-18.666-67.199c-3.734-12.445-9.956-22.401-18.666-31.111l-112.001-112.001c-11.2-12.445-29.867-12.445-41.067 0-12.444 11.2-12.444 29.867 0 42.312l110.756 110.756c1.245 1.245 2.489 3.732 3.734 4.977l26.132 100.8c7.466 24.89 26.132 46.046 49.778 54.757zM880.533 454.221c-3.734 22.401-11.2 42.312-24.888 59.733l94.577 93.334c11.2 12.445 29.867 12.445 42.312 0 11.2-11.2 11.2-29.867 0-41.067l-112.001-112.001z" />
<glyph unicode="&#xe90f;" glyph-name="plug" horiz-adv-x="842" d="M341.333 736.711v-109.511h-59.733v109.511c0 16.178 12.445 29.867 29.867 29.867 16.177 0 29.867-13.689 29.867-29.867zM560.356 736.711v-109.511h-59.733v109.511c0 16.178 12.445 29.867 29.867 29.867 16.177 0 29.867-13.689 29.867-29.867zM211.911 587.378h418.133c16.177 0 29.867-13.69 29.867-29.867 0-17.422-13.69-29.867-29.867-29.867h-9.956v-79.644c0-100.8-73.423-182.934-169.244-197.866v-90.845c0-17.422-13.69-29.867-29.867-29.867-17.422 0-29.867 12.445-29.867 29.867v90.845c-95.821 14.932-169.244 97.066-169.244 197.866v79.644h-9.956c-17.422 0-29.867 12.445-29.867 29.867 0 16.177 12.445 29.867 29.867 29.867zM420.978 308.622c75.91 0 139.378 62.223 139.378 139.378v79.644h-278.756v-79.644c0-77.155 62.223-139.378 139.378-139.378z" />
<glyph unicode="&#xe910;" glyph-name="sun" horiz-adv-x="1047" d="M671.466 741.689l22.401-123.2 123.199-22.401c9.958-1.245 18.669-8.711 22.401-17.422 3.734-9.956 2.489-19.911-3.732-28.622l-70.934-102.045 70.934-103.29c6.221-8.711 7.466-18.666 3.732-28.622-3.732-8.711-12.443-16.177-22.401-17.422l-123.199-22.401-22.401-123.199c-1.245-9.956-8.711-18.666-17.422-22.401-9.956-3.734-19.911-2.489-28.622 3.734l-102.045 70.931-103.29-70.931c-8.711-6.224-18.666-7.468-28.622-3.734-8.711 4.977-16.177 12.445-17.422 22.401l-22.401 123.199-123.199 22.401c-9.956 1.245-18.668 8.711-22.401 17.422-3.734 9.956-2.489 19.911 3.733 28.622l70.932 103.29-70.932 102.045c-6.222 8.711-7.467 18.666-3.733 28.622 4.978 8.711 12.444 16.177 22.401 17.422l123.199 22.401 22.401 123.2c1.245 9.956 8.711 18.667 17.422 22.4 9.956 3.734 19.911 2.489 28.622-3.733l103.29-70.933 102.045 70.933c8.711 6.222 18.666 7.467 28.622 3.733 8.711-3.733 16.177-12.444 17.422-22.4zM539.555 629.689c-9.956-7.468-23.643-7.468-33.599 0l-82.134 55.999-17.422-98.311c-2.489-11.2-12.445-21.156-23.645-23.645l-98.311-17.422 57.244-82.134c6.224-9.956 6.224-23.643 0-33.599l-57.244-82.134 98.311-17.422c11.2-2.489 21.156-12.445 23.645-23.645l17.422-98.311 82.134 57.244c9.956 6.224 23.643 6.224 33.599 0l82.134-57.244 17.422 98.311c2.489 11.2 12.445 21.156 23.645 23.645l98.311 17.422-55.999 82.134c-7.468 9.956-7.468 23.643 0 33.599l55.999 82.134-98.311 17.422c-11.2 2.489-21.156 12.445-23.645 23.645l-17.422 98.311-82.134-55.999zM523.378 308.622c-51.023 0-95.821 26.132-120.711 69.689-26.132 42.312-26.132 95.821 0 139.378 24.89 42.312 69.689 69.689 120.711 69.689 49.778 0 94.577-27.377 119.467-69.689 26.132-43.556 26.132-97.066 0-139.378-24.89-43.556-69.689-69.689-119.467-69.689zM443.733 448c0-28.622 14.932-54.754 39.822-69.689 23.645-13.69 54.754-13.69 79.644 0 23.645 14.934 39.822 41.067 39.822 69.689 0 27.377-16.177 53.512-39.822 68.444-24.89 13.69-55.999 13.69-79.644 0-24.89-14.932-39.822-41.067-39.822-68.444z" />
<glyph unicode="&#xe911;" glyph-name="plus" horiz-adv-x="1084" d="M598.588 880.941v-376.471h376.471c30.587 0 56.471-25.883 56.471-56.471 0-32.941-25.883-56.471-56.471-56.471h-376.471v-376.471c0-32.943-25.883-56.471-56.471-56.471-32.941 0-56.471 23.528-56.471 56.471v376.471h-376.471c-32.941 0-56.471 23.529-56.471 56.471 0 30.588 23.529 56.471 56.471 56.471h376.471v376.471c0 30.588 23.529 56.471 56.471 56.471 30.588 0 56.471-25.882 56.471-56.471z" />
<glyph unicode="&#xe912;" glyph-name="minus" horiz-adv-x="6144" d="M5845.333 448c0-186.668-146.671-320-320-320h-4906.667c-186.668 0-320 133.332-320 320 0 173.333 133.332 320 320 320h4906.667c173.329 0 320-146.667 320-320z" />
<glyph unicode="&#xe913;" glyph-name="left-arrow" horiz-adv-x="1152" d="M473.649 942.438c24.997 22.495 62.5 22.491 85-2.5 22.499-22.499 22.498-62.499-2.5-85l-332.5-315h852.499c32.499 0 59.994-27.504 60-60 0-35-27.501-60-60-60h-852.499l332.5-317.499c24.999-22.502 24.997-60 2.5-84.998-22.5-25.005-60-25.005-85-2.502l-440 420c-12.494 12.499-17.5 27.503-17.5 45 0.002 14.996 5.003 30.003 17.5 42.5l440 420z" />
<glyph unicode="&#xe914;" glyph-name="right-arrow" horiz-adv-x="1152" d="M591.156 939.937c22.498 24.994 62.501 24.991 84.997 2.5l440-420c12.499-12.497 20-27.503 20-42.5 0-17.499-7.501-32.5-20-45l-440-420c-24.998-22.502-62.497-22.502-84.997 2.502-22.493 24.998-22.497 62.502 2.5 84.998l332.5 317.499h-850.001c-34.997 0.003-60 25.002-60 60 0.005 32.494 25.006 59.997 60 60h850.001l-332.5 315c-24.992 22.501-24.998 62.502-2.5 85z" />
<glyph unicode="&#xe915;" glyph-name="facebook" horiz-adv-x="975" d="M487.809 920.333c260.954 0 472.381-211.428 472.381-472.382-0.005-236.188-173.334-432.382-399.999-466.666v329.523h110.475l20.953 137.143h-131.428v87.62c0 38.095 19.046 74.285 78.092 74.286h59.051v116.19c-0.278 0.050-53.472 9.524-106.667 9.524-106.666-0.001-177.144-66.667-177.144-184.762v-102.858h-120v-137.143h120v-329.523c-226.664 34.284-398.093 230.478-398.095 466.666 0 260.953 211.429 472.381 472.381 472.382z" />
<glyph unicode="&#xe916;" glyph-name="instagram" horiz-adv-x="970" d="M289.473 915.316c77.894 4.211 311.577 4.21 389.476 0 75.787-4.211 143.155-21.053 197.891-75.789s71.583-122.106 75.792-197.895c4.209-77.901 4.209-311.58 0-389.474-4.215-75.787-21.057-141.053-75.792-197.896-54.735-54.73-122.104-71.578-197.891-75.787-77.899-4.209-311.582-4.209-389.476 0-75.788 4.209-141.053 21.051-197.894 75.787-54.735 56.843-71.578 122.109-75.79 197.896-4.21 77.894-4.21 311.573 0 389.474 4.21 75.788 21.056 143.159 75.79 197.895 56.841 54.736 122.106 71.579 197.894 75.789zM763.16 814.263c-63.159 25.263-210.529 18.947-277.897 18.947-69.475 0-216.843 6.315-277.895-18.947-42.104-16.843-73.685-48.422-90.526-88.421-25.26-63.161-18.947-210.528-18.947-277.895-0.001-69.477-6.315-216.841 18.947-277.893 16.843-42.103 48.423-73.685 90.526-90.527 61.052-25.266 208.42-18.949 277.895-18.949 67.368 0 214.732-6.311 277.897 18.949 39.995 16.842 73.679 48.424 88.42 90.527 25.26 61.052 18.949 208.416 18.944 277.893 0 67.367 6.316 214.734-18.944 277.895-16.842 40-48.424 73.684-88.42 88.421zM485.263 690.053c132.629 0 242.105-109.474 242.105-242.105-0.005-134.733-109.476-242.107-242.105-242.107-134.734 0.005-242.102 107.374-242.105 242.107 0 132.631 107.37 242.104 242.105 242.105zM485.263 603.737c-88.42-0.001-157.895-69.475-157.895-155.79 0.003-88.415 71.582-157.891 157.895-157.896 86.312 0 155.788 69.481 155.788 157.896 0 86.316-69.47 155.79-155.788 155.79zM735.787 755.316c31.582 0 56.843-25.263 56.843-56.842 0-31.576-25.266-56.842-56.843-56.842-31.572 0.002-56.837 25.267-56.837 56.842 0 31.578 25.26 56.841 56.837 56.842z" />
<glyph unicode="&#xe917;" glyph-name="diagonal-arrow" d="M907.909 913.348c37.811-0.004 69.815-32.002 69.815-69.818v-698.182c0-40.723-32.005-69.815-69.815-69.818-40.726 0-69.816 29.093-69.818 69.818v529.455l-672-672.001c-27.277-27.276-67.345-28.97-93.818-5.092l-10.182 10.184c-22.301 24.705-22.298 61.11 0 85.818l677.091 677.091h-529.455c-40.725 0-69.816 32.002-69.818 69.818 0 40.727 29.091 69.818 69.818 69.818h698.182v2.909z" />
<glyph unicode="&#xe918;" glyph-name="whatsapp" d="M509.893 959.929c137.142 0 265.144-54.859 358.854-150.857 96-96 155.429-221.714 155.429-358.857 0-278.855-233.143-507.426-514.283-507.426-84.569 0-166.859 22.857-242.286 61.711l-267.428-68.571 70.857 262.861c-43.428 75.426-68.571 162.285-68.571 253.712 0 278.856 228.574 507.426 507.428 507.429zM512.178 873.071c-233.14-0.003-422.857-189.716-422.857-420.571 0-79.999 22.858-157.715 64-226.284l11.429-16.004-43.429-155.429 160 43.432 13.714-9.143c66.284-38.861 139.431-59.429 214.857-59.429 233.144 0 427.426 189.711 427.426 420.569 0 114.286-47.996 219.429-128 299.429-79.996 79.999-185.141 123.429-297.14 123.429zM361.393 685.643c6.956-0.542 14.226-4.025 22.785-22.857 9.143-25.142 36.57-86.854 38.857-93.714 2.286-6.857 4.571-13.714 0-22.857-22.856-47.995-50.283-45.716-36.571-68.571 50.285-84.569 98.288-114.286 173.714-150.857 11.427-6.856 18.288-4.569 27.429 2.286 6.856 9.142 31.997 38.855 38.857 50.286 9.141 13.713 18.288 11.428 29.714 6.857 11.428-4.571 73.135-34.281 86.858-41.143 11.425-6.856 20.568-9.143 22.857-16 4.571-4.571 4.571-29.714-6.861-59.429-11.425-29.713-61.712-57.141-84.569-59.43-41.14-6.853-73.147-4.571-153.143 32.001-127.997 54.859-210.286 182.857-217.143 189.714-6.862 9.149-50.285 68.577-50.286 132.571 0 61.709 31.998 91.427 43.429 105.143 11.426 13.711 25.143 15.999 34.286 16h29.786z" />
<glyph unicode="&#xe919;" glyph-name="phone" horiz-adv-x="964" d="M269.323 958.059c35.764 7.529 71.529-11.295 84.706-45.176l90.353-210.824c13.176-30.118 5.647-65.882-20.706-86.588l-77.176-64c50.823-86.587 122.355-158.118 208.941-208.942l64.001 77.178c20.703 26.352 56.471 33.88 86.588 20.706l210.824-90.354c33.882-13.173 52.706-48.941 45.176-84.703l-45.176-210.824c-7.529-33.882-37.647-60.235-73.415-60.235-13.173 0-24.468 1.879-35.762 1.879-7.529 0-16.944 0-24.474 1.885-438.583 30.118-783.056 395.294-783.056 841.41 0 33.881 24.473 65.881 58.353 73.412l210.823 45.176zM282.5 897.823l-210.824-45.176c-7.526-0.003-11.294-7.531-11.294-13.176 0-432.939 350.12-783.054 781.177-783.060 7.529 0 13.173 3.765 15.059 11.294l45.176 210.824c1.879 7.529-1.885 13.179-7.529 16.944l-210.824 90.351c-7.529 1.881-13.179-0.001-18.824-3.765l-62.121-77.178c-18.821-22.582-50.822-28.232-77.174-13.173-95.998 54.585-175.059 133.646-229.647 229.645-15.056 26.352-9.409 58.354 13.176 77.176l77.176 62.118c3.765 5.647 5.647 11.294 3.765 18.824l-90.353 210.824c-3.765 5.646-9.412 9.412-16.941 7.529z" />
<glyph unicode="&#xe91a;" glyph-name="location" horiz-adv-x="768" d="M384.156 959.938c212 0 383.997-172 383.997-384 0-176-233.997-485.998-337.997-616.001-24.001-29.997-70.001-29.997-94 0-102.001 130.003-335.999 440.002-336 616.001 0 211.999 172.002 383.997 384 384zM384.156 895.937c-177.997-0.003-320-144.001-320-320 0.001-31.999 10.001-74.001 32-128 22-51.999 52.001-108 88-164.001 67.999-109.997 148-216 200-280 49.999 64 130.001 170.003 200 280 33.999 56.001 63.997 112.003 86.001 164.001 21.997 53.999 33.997 96.001 33.997 128 0 176-143.997 320-319.997 320zM384.156 735.937c55.999 0 108-32.001 138-80 28-50 28-112 0-160-30-49.998-82.001-80-138-80-57.998 0.002-110.001 30.002-140 80-27.999 47.999-27.998 110.001 0 160 29.999 47.999 82.002 79.998 140 80zM432.156 657.937c-29.999 17.998-68.001 17.999-96 0-29.997-18-48-48.001-48-82 0.001-35.998 18.003-66 48-84 27.999-17.999 66.001-17.997 96 0 28 18 47.999 48.001 48 84 0 34-20 64-48 82z" />
<glyph unicode="&#xe91b;" glyph-name="file" horiz-adv-x="723" d="M414.265 929.824c22.588 0 47.059-11.295 64-28.235l216.471-216.471c16.938-16.941 28.232-41.412 28.232-64v-534.589c0-67.765-54.585-120.471-120.471-120.471h-481.88c-67.762 0.006-120.47 52.712-120.471 120.471v722.825c0 65.881 52.708 120.468 120.471 120.471h293.647zM120.618 869.588c-33.88-0.002-60.235-28.236-60.235-60.235v-722.825c0.001-33.876 26.356-60.229 60.235-60.235h481.88c32.003 0 60.235 26.353 60.235 60.235v481.884h-210.821c-50.821 0.002-90.352 39.532-90.353 90.353v210.824h-240.941zM512.147 206.999c15.059 0 30.118-15.059 30.118-30.118-0.001-16.938-15.059-30.118-30.118-30.118h-301.176c-16.938 0.006-30.117 13.179-30.118 30.118 0 15.059 13.179 30.118 30.118 30.118h301.176zM512.147 327.469c15.059 0 30.118-15.059 30.118-30.118-0.001-16.938-15.059-30.118-30.118-30.118h-301.176c-16.938 0.006-30.117 13.179-30.118 30.118 0 15.059 13.179 30.118 30.118 30.118h301.176zM512.147 447.941c15.059 0 30.118-15.059 30.118-30.118-0.001-16.941-15.059-30.118-30.118-30.118h-301.176c-16.938 0.002-30.117 13.179-30.118 30.118 0 15.058 13.179 30.115 30.118 30.118h301.176zM421.794 658.764c0.001-16.939 13.179-30.115 30.118-30.118h208.942c-1.885 3.765-3.765 9.412-7.529 13.176l-218.354 218.353c-3.765 3.764-9.412 5.648-13.176 7.529v-208.941z" />
<glyph unicode="&#xe91c;" glyph-name="x" horiz-adv-x="1084" d="M854.118 960h164.707l-362.357-416.47 428.237-562.353h-334.119l-263.527 341.179-298.824-341.179h-167.059l388.236 442.353-409.412 536.471h343.529l235.295-312.941 275.295 312.941zM795.293 79.998h91.768l-592.944 785.884h-98.823l599.998-785.884z" />
<glyph unicode="&#xe91d;" glyph-name="check" horiz-adv-x="1414" d="M1382.619 896c18.286-18.286 18.286-51.81 0-70.095l-828.952-828.952c-18.286-18.286-51.81-18.286-70.096 0l-438.857 438.857c-18.286 18.286-18.286 51.81 0 70.095s51.809 18.286 70.095 0l405.334-405.333 792.381 795.429c18.286 18.286 51.81 18.286 70.095 0z" />
<glyph unicode="&#xe91e;" glyph-name="external-link" horiz-adv-x="910" d="M568.889 903.111h284.444c30.222 0 56.889-26.667 56.889-56.889v-284.444c0-32-26.667-56.889-56.889-56.889-32 0-56.889 24.889-56.889 56.889v145.778l-359.111-357.334c-21.333-23.111-58.667-23.111-80.001 0-23.111 21.333-23.111 58.667 0 80.001l357.334 359.111h-145.778c-32 0-56.889 24.889-56.889 56.889 0 30.222 24.889 56.889 56.889 56.889zM142.222 846.222h199.111c30.222 0 56.889-26.667 56.889-56.889 0-32-26.667-56.889-56.889-56.889h-199.111c-15.999 0-28.444-14.222-28.444-28.444v-568.889c0-15.999 12.445-28.444 28.444-28.444h568.889c14.222 0 28.444 12.445 28.444 28.444v199.111c0 30.222 24.889 56.889 56.889 56.889 30.222 0 56.889-26.667 56.889-56.889v-199.111c0-79.999-64-142.222-142.222-142.222h-568.889c-80 0-142.222 62.223-142.222 142.222v568.889c0 78.222 62.222 142.222 142.222 142.222z" />
<glyph unicode="&#xe91f;" glyph-name="home" horiz-adv-x="1179" d="M608.97 921.212l527.515-465.455c13.576-11.636 13.576-31.030 3.879-44.606-11.636-13.576-31.030-13.576-44.606-1.939l-71.758 64v-382.061c0-87.273-69.818-155.152-155.152-155.152h-558.545c-87.273 0-155.152 67.879-155.152 155.152v382.061l-73.697-64c-11.636-11.636-32.97-11.636-42.667 1.939-11.636 13.576-11.636 32.97 1.939 44.606l527.515 465.455c11.636 9.697 29.091 9.697 40.727 0zM217.212 91.152c0-52.364 40.727-93.091 93.091-93.091h124.121v310.303c0 32.97 27.152 62.061 62.061 62.061h186.182c32.97 0 62.061-29.091 62.061-62.061v-310.303h124.121c50.424 0 93.091 40.727 93.091 93.091v436.364l-372.364 327.758-372.364-327.758v-436.364zM496.485-1.939h186.182v310.303h-186.182v-310.303z" />
<glyph unicode="&#xe920;" glyph-name="raindrops" horiz-adv-x="439" d="M96 818.286c0 34 18 64 48 82 28 18 66 18 96 0 28-18 48-48 48-82 0-36-20-66-48-84-30-18-68-18-96 0-30 18-48 48-48 84zM0 530.286c0 34 28 64 64 64h128c34 0 64-30 64-64v-448h64c34 0 64-30.003 64-64 0-36.001-30-64-64-64h-256c-36 0-64 27.999-64 64 0 33.997 28 64 64 64h64v384h-64c-36 0-64 28-64 64z" />
<glyph unicode="&#xe921;" glyph-name="upload" horiz-adv-x="956" d="M522.667 270.93c0-26.132-20.533-44.797-44.8-44.797-26.133 0-44.8 18.664-44.8 44.797v518.937l-177.334-177.333c-18.666-18.667-46.666-18.667-63.466 0-18.667 16.8-18.667 44.8 0 63.466l253.867 253.867c16.8 16.8 44.8 16.8 61.6 0l255.734-253.867c16.8-18.666 16.8-46.666 0-63.466-18.664-18.667-46.667-18.667-63.468 0l-177.333 177.333v-518.937zM582.4 285.867v89.6h253.867c65.331 0 119.467-54.133 119.467-119.467v-149.333c0-67.202-54.135-119.467-119.467-119.467h-716.8c-67.2 0-119.467 52.265-119.467 119.467v149.333c0 65.333 52.267 119.467 119.467 119.467h253.867v-89.6h-253.867c-16.8 0-29.867-14.937-29.867-29.867v-149.333c0-16.8 13.067-29.867 29.867-29.867h716.8c14.937 0 29.867 13.066 29.867 29.867v149.333c0 14.93-14.93 29.867-29.867 29.867h-253.867zM716.8 181.337c0 24.262 18.664 44.797 44.797 44.797 24.269 0 44.803-20.535 44.803-44.797 0-26.139-20.535-44.803-44.803-44.803-26.132 0-44.797 18.664-44.797 44.803z" />
<glyph unicode="&#xe922;" glyph-name="user" horiz-adv-x="900" d="M630.948 680.727c0 65.939-36.848 126.061-93.091 160.97-58.182 32.97-129.939 32.97-186.182 0-58.183-34.909-93.092-95.030-93.092-160.97 0-67.879 34.909-128 93.092-162.909 56.242-32.97 128-32.97 186.182 0 56.242 34.909 93.091 95.030 93.091 162.909zM196.523 680.727c0 87.273 46.545 168.727 124.123 213.333 75.636 44.606 170.667 44.606 248.242 0 75.636-44.606 124.121-126.061 124.121-213.333 0-89.212-48.485-170.667-124.121-215.273-77.576-44.606-172.606-44.606-248.242 0-77.577 44.606-124.123 126.061-124.123 215.273zM72.401-1.939h744.729c-3.879 153.212-129.939 279.273-285.091 279.273h-176.485c-155.153 0-281.214-126.061-283.153-279.273zM10.341-7.758c0 192 153.212 347.152 345.214 347.152h176.485c192 0 347.152-155.152 347.152-347.152 0-31.030-27.152-56.242-58.182-56.242h-754.426c-31.030 0-56.242 25.212-56.242 56.242z" />
</font>
</defs>
</svg>
